<svg xmlns="http://www.w3.org/2000/svg" viewBox="1219 426.568 12.078 8.365">
  <defs>
    <style>
      .cls-1 {
        fill: #fff;
      }
    </style>
  </defs>
  <path id="Union_4" data-name="Union 4" class="cls-1" d="M-689.457,2173.486a1,1,0,0,1,0-1.415l1.225-1.225H-696a1,1,0,0,1-1-1,1,1,0,0,1,1-1h8.268l-1.725-1.725a1,1,0,0,1,0-1.414,1,1,0,0,1,1.414,0l2.829,2.829a1,1,0,0,1,.229,1.061,1,1,0,0,1-.229,1.061l-2.829,2.829a1,1,0,0,1-.707.293A1,1,0,0,1-689.457,2173.486Z" transform="translate(1916 -1738.846)"/>
</svg>
