<svg xmlns="http://www.w3.org/2000/svg" xmlns:xlink="http://www.w3.org/1999/xlink" viewBox="1464.889 -1067.541 179.563 179.563">
  <defs>
    <style>
      .cls-1 {
        fill: #228cef;
      }

      .cls-2, .cls-3 {
        fill: #fff;
      }

      .cls-2 {
        font-size: 11px;
        font-family: OpenSans-Bold, Open Sans;
        font-weight: 700;
      }

      .cls-4 {
        filter: url(#Path_110);
      }
    </style>
    <filter id="Path_110" x="1464.889" y="-1067.541" width="179.563" height="179.563" filterUnits="userSpaceOnUse">
      <feOffset dy="4" input="SourceAlpha"/>
      <feGaussianBlur stdDeviation="4" result="blur"/>
      <feFlood flood-color="#0f5699" flood-opacity="0.102"/>
      <feComposite operator="in" in2="blur"/>
      <feComposite in="SourceGraphic"/>
    </filter>
  </defs>
  <g id="_5" data-name="5" transform="translate(635 -1976)">
    <g class="cls-4" transform="matrix(1, 0, 0, 1, -635, 1976)">
      <path id="Path_110-2" data-name="Path 110" class="cls-1" d="M0,0H110V110H0Z" transform="translate(1476.89 -981.76) rotate(-45)"/>
    </g>
    <text id="CASE_STUDIES" data-name="CASE STUDIES" class="cls-2" transform="translate(920 1015)"><tspan x="-37.211" y="0">CASE STUDIES</tspan></text>
    <g id="Group_142" data-name="Group 142" transform="translate(900 956.006)">
      <path id="Path_122" data-name="Path 122" class="cls-3" d="M37.2,6.7H26.6V5.3C26.6-.4,21.2,0,21.2,0H18.7a5.054,5.054,0,0,0-5.4,5.4V6.7H2.6A2.534,2.534,0,0,0,0,9.4v5.2s11.4,4.1,19.9,4.1c9.3,0,20.1-4.2,20.1-4.2V9.4A2.632,2.632,0,0,0,37.2,6.7ZM16.9,5.2c0-2.7,3.1-2.7,3.1-2.7a2.768,2.768,0,0,1,3.1,2.8V6.6H16.9S16.9,5.2,16.9,5.2Zm6.4,12.5H16.7V15.1h6.6Z"/>
      <path id="Path_123" data-name="Path 123" class="cls-3" d="M40,29.8V16.5a52.971,52.971,0,0,1-20.1,4A56.78,56.78,0,0,1,0,16.3V29.7a2.578,2.578,0,0,0,2.6,2.7H37.3A2.428,2.428,0,0,0,40,29.8ZM23.3,22.7a1.685,1.685,0,0,1-1.7,1.7H18.3a1.685,1.685,0,0,1-1.7-1.7V21h6.6v1.7Z"/>
    </g>
    <g id="arrow" transform="translate(60 -40)">
      <path id="Union_4" data-name="Union 4" class="cls-3" d="M-689.457,2173.486a1,1,0,0,1,0-1.415l1.225-1.225H-696a1,1,0,0,1-1-1,1,1,0,0,1,1-1h8.268l-1.725-1.725a1,1,0,0,1,0-1.414,1,1,0,0,1,1.414,0l2.829,2.829a1,1,0,0,1,.229,1.061,1,1,0,0,1-.229,1.061l-2.829,2.829a1,1,0,0,1-.707.293A1,1,0,0,1-689.457,2173.486Z" transform="translate(1553 -1091.846)"/>
    </g>
  </g>
</svg>
