<svg xmlns="http://www.w3.org/2000/svg" viewBox="-1104.402 603.777 16.089 16.089">
  <defs>
    <style>
      .cls-1 {
        fill: #228cef;
      }
    </style>
  </defs>
  <g id="Group_155" data-name="Group 155" transform="translate(-1104.402 603.777)">
    <path id="Path_87" data-name="Path 87" class="cls-1" d="M8.045.67a7.44,7.44,0,0,1,7.374,7.374,7.44,7.44,0,0,1-7.374,7.374A7.44,7.44,0,0,1,.67,8.045,7.44,7.44,0,0,1,8.045.67m0-.67a8.045,8.045,0,1,0,8.045,8.045A8.068,8.068,0,0,0,8.045,0Z"/>
    <path id="Path_86" data-name="Path 86" class="cls-1" d="M2.834,7.927A.468.468,0,0,1,2.7,7.659c0-.134.134-.4.268-.4H6.856V3.368c0-.134.134-.268.4-.268.134,0,.268.134.268.4V7.659a.288.288,0,0,1-.268.268H3.1C2.968,8.061,2.968,7.927,2.834,7.927Z" transform="translate(0.92 1.056)"/>
  </g>
</svg>
