<svg xmlns="http://www.w3.org/2000/svg" viewBox="-58 1184 12 12">
  <defs>
    <style>
      .cls-1 {
        fill: #7186c7;
      }
    </style>
  </defs>
  <g id="Group_133" data-name="Group 133" transform="translate(-58 1184)">
    <path id="Path_87" data-name="Path 87" class="cls-1" d="M6,.5A5.549,5.549,0,0,1,11.5,6,5.549,5.549,0,0,1,6,11.5,5.549,5.549,0,0,1,.5,6,5.549,5.549,0,0,1,6,.5M6,0a6,6,0,1,0,6,6A6.018,6.018,0,0,0,6,0Z"/>
    <path id="Path_86" data-name="Path 86" class="cls-1" d="M2.8,6.7a.349.349,0,0,1-.1-.2c0-.1.1-.3.2-.3H5.8V3.3c0-.1.1-.2.3-.2.1,0,.2.1.2.3V6.5a.215.215,0,0,1-.2.2H3C2.9,6.8,2.9,6.7,2.8,6.7Z"/>
  </g>
</svg>
