<svg xmlns="http://www.w3.org/2000/svg" viewBox="361 -2069 120.55 120">
  <defs>
    <style>
      .cls-1 {
        fill: #f7f7f7;
      }
    </style>
  </defs>
  <path id="two-settings-cogwheels" class="cls-1" d="M62.876,74.193,59.592,66.9a31.823,31.823,0,0,0,7.919-8.418l7.476,2.833a2.767,2.767,0,0,0,3.568-1.607L81.3,52.459A2.767,2.767,0,0,0,79.7,48.89l-7.476-2.833a31.811,31.811,0,0,0-.353-11.552l7.289-3.283a2.768,2.768,0,0,0,1.387-3.66L77.357,20.49A2.768,2.768,0,0,0,73.7,19.1l-7.289,3.283a31.823,31.823,0,0,0-8.418-7.919l2.833-7.476a2.768,2.768,0,0,0-1.607-3.568L51.963.675a2.767,2.767,0,0,0-3.568,1.608L45.563,9.759a31.731,31.731,0,0,0-11.553.352L30.727,2.822a2.768,2.768,0,0,0-3.66-1.387L20,4.621a2.767,2.767,0,0,0-1.387,3.66l3.283,7.289a31.823,31.823,0,0,0-7.919,8.418L6.5,21.156a2.767,2.767,0,0,0-3.568,1.608L.181,30.016a2.768,2.768,0,0,0,1.607,3.568l7.476,2.833a31.811,31.811,0,0,0,.353,11.552l-7.29,3.283a2.768,2.768,0,0,0-1.387,3.66l3.185,7.071a2.767,2.767,0,0,0,3.66,1.387l7.289-3.283a31.806,31.806,0,0,0,8.418,7.919L20.66,75.482a2.768,2.768,0,0,0,1.607,3.568L29.52,81.8a2.767,2.767,0,0,0,3.568-1.608l2.832-7.476a31.743,31.743,0,0,0,11.553-.352l3.283,7.289a2.768,2.768,0,0,0,3.66,1.387l7.071-3.185A2.767,2.767,0,0,0,62.876,74.193ZM58.289,47.885a18.744,18.744,0,0,1-24.2,10.9,18.765,18.765,0,0,1-10.9-24.2,18.744,18.744,0,0,1,24.2-10.9,18.764,18.764,0,0,1,10.9,24.2Zm61.533,37.791a2.768,2.768,0,0,0-1.92-.894l-5.213-.224a23.914,23.914,0,0,0-2.564-7.028L113.969,74a2.767,2.767,0,0,0,.168-3.91l-3.817-4.159a2.767,2.767,0,0,0-3.911-.168l-3.844,3.528a23.918,23.918,0,0,0-6.783-3.156l.224-5.213a2.768,2.768,0,0,0-2.647-2.883L87.72,57.8a2.777,2.777,0,0,0-2.883,2.646l-.224,5.213a23.94,23.94,0,0,0-7.028,2.564l-3.528-3.844a2.767,2.767,0,0,0-3.91-.168l-4.159,3.817a2.767,2.767,0,0,0-.168,3.91l3.528,3.844a23.911,23.911,0,0,0-3.156,6.783l-5.212-.224A2.774,2.774,0,0,0,58.1,84.988l-.242,5.64A2.768,2.768,0,0,0,60.5,93.511l5.212.223a23.937,23.937,0,0,0,2.564,7.028l-3.844,3.528a2.767,2.767,0,0,0-.168,3.91l3.817,4.159a2.767,2.767,0,0,0,3.911.168L75.837,109a23.917,23.917,0,0,0,6.783,3.156l-.224,5.213a2.767,2.767,0,0,0,2.646,2.883l5.64.242.118,0a2.768,2.768,0,0,0,2.765-2.649l.224-5.213a23.939,23.939,0,0,0,7.028-2.564l3.528,3.844a2.767,2.767,0,0,0,3.91.168l4.159-3.817a2.767,2.767,0,0,0,.168-3.91l-3.528-3.844a23.91,23.91,0,0,0,3.156-6.783l5.212.224a2.773,2.773,0,0,0,2.884-2.646l.242-5.64A2.766,2.766,0,0,0,119.822,85.677ZM88.648,102.04a12.905,12.905,0,0,1,.541-25.8q.281,0,.564.012a12.9,12.9,0,0,1-1.105,25.786Z" transform="translate(361 -2069.496)"/>
</svg>
