<svg xmlns="http://www.w3.org/2000/svg" viewBox="362 1184 12 12">
  <defs>
    <style>
      .cls-1 {
        fill: #7186c7;
      }
    </style>
  </defs>
  <g id="Group_132" data-name="Group 132" transform="translate(362 1184)">
    <path id="Path_86" data-name="Path 86" class="cls-1" d="M6,12a5.991,5.991,0,0,1-3.6-1.2l-2.1.6a.367.367,0,0,1-.3-.1q0-.15,0-.3L.7,8.8A5.3,5.3,0,0,1,0,6a6,6,0,1,1,6,6ZM2.5,10.2c.1,0,.1,0,.2.1a5.233,5.233,0,0,0,3.4,1.2A5.484,5.484,0,0,0,11.6,6,5.55,5.55,0,0,0,.5,6a5.189,5.189,0,0,0,.7,2.7v.2L.6,10.7l1.9-.5Z"/>
  </g>
</svg>
