<svg xmlns="http://www.w3.org/2000/svg" viewBox="1929 -1775.5 18 18">
  <defs>
    <style>
      .cls-1 {
        fill: #228cef;
      }
    </style>
  </defs>
  <path id="Facebook_1_" class="cls-1" d="M18,17.019a.984.984,0,0,1-.981.981h-4.61V11.035h2.354l.343-2.7h-2.7V6.621c0-.785.2-1.324,1.324-1.324h1.422V2.845a16.066,16.066,0,0,0-2.109-.1,3.273,3.273,0,0,0-3.482,3.58V8.338H7.21v2.7H9.564V18H.981A.984.984,0,0,1,0,17.019V.981A.984.984,0,0,1,.981,0H17.019A.984.984,0,0,1,18,.981Z" transform="translate(1929 -1775.5)"/>
</svg>
