<svg xmlns="http://www.w3.org/2000/svg" viewBox="2916 246 50 50">
  <defs>
    <style>
      .cls-1 {
        fill: #228cef;
      }
    </style>
  </defs>
  <g id="engineer" transform="translate(2916 246)">
    <g id="Group_1942" data-name="Group 1942">
      <g id="Group_1941" data-name="Group 1941">
        <path id="Path_5023" data-name="Path 5023" class="cls-1" d="M47.524,41.5c-5-2.631-8.823-4.092-12.22-4.668l.37-.508a.835.835,0,0,0,.135-.692l-.774-3.094a17.8,17.8,0,0,0,3.3-10.037V19.167h2.5a.833.833,0,1,0,0-1.667H40v-.833a14.281,14.281,0,0,0-1.527-6.453l-7.483,1.438a.833.833,0,0,1-.976-.975L31.382,3.5a16.142,16.142,0,0,0-2.215-.812V2.513A2.516,2.516,0,0,0,26.653,0H23.347a2.516,2.516,0,0,0-2.514,2.513V2.69a16.186,16.186,0,0,0-2.214.812l1.367,7.175a.834.834,0,0,1-.977.975l-7.482-1.438A14.281,14.281,0,0,0,10,16.667V17.5H9.167a.833.833,0,0,0,0,1.667h2.5V22.5a17.81,17.81,0,0,0,3.3,10.037l-.773,3.094a.832.832,0,0,0,.135.692l.37.508c-3.4.577-7.221,2.038-12.22,4.668A4.623,4.623,0,0,0,0,45.6v3.563A.834.834,0,0,0,.833,50H21.147l7.67-.007c.013,0,.024.008.038.008H49.167A.833.833,0,0,0,50,49.167V45.6A4.623,4.623,0,0,0,47.524,41.5Zm-34.191-19V19.167H36.667V22.5a15.318,15.318,0,0,1-3.291,9.532.835.835,0,0,0-.093.078q-.43.55-.888,1.038l0,0c-.2.214-.413.4-.623.6A10.392,10.392,0,0,1,25,36.667a10.4,10.4,0,0,1-6.767-2.913c-.209-.2-.42-.387-.623-.6l0,0q-.458-.487-.889-1.038a.834.834,0,0,0-.092-.078A15.318,15.318,0,0,1,13.333,22.5ZM15.9,35.657l.374-1.5.006.006a12.249,12.249,0,0,0,7.465,4.085h0l-2.262,5.088Zm5.947,12.675.5-2.5h5.3l.212,1.056.288,1.438Zm6.658-4.991-2.262-5.088h0a12.248,12.248,0,0,0,7.465-4.085l.006-.006.374,1.5Z"/>
        <path id="Path_5024" data-name="Path 5024" class="cls-1" d="M322.159,43.415l-1.042,5.472,5.7-1.1A14.554,14.554,0,0,0,322.159,43.415Z" transform="translate(-289.235 -39.105)"/>
        <path id="Path_5025" data-name="Path 5025" class="cls-1" d="M129.72,43.415a14.553,14.553,0,0,0-4.66,4.375l5.7,1.1Z" transform="translate(-112.644 -39.105)"/>
      </g>
    </g>
  </g>
</svg>
