<svg xmlns="http://www.w3.org/2000/svg" viewBox="915 101 130.02 130">
  <defs>
    <style>
      .cls-1 {
        fill: #f7f7f7;
      }
    </style>
  </defs>
  <g id="screwdriver-and-wrench-crossed" transform="translate(915 100.962)">
    <g id="Group_1631" data-name="Group 1631" transform="translate(0.001 0.038)">
      <g id="Group_1630" data-name="Group 1630" transform="translate(0)">
        <g id="Group_1629" data-name="Group 1629">
          <path id="Path_4220" data-name="Path 4220" class="cls-1" d="M3.568,299.323A12.177,12.177,0,0,0,20.793,316.54l39.978-39.986L43.546,259.345Z" transform="translate(-0.001 -190.104)"/>
          <path id="Path_4221" data-name="Path 4221" class="cls-1" d="M305.795,35.162l17.412-9,9.116-17.623-8.5-8.5L306.209,9.162l-9.018,17.4-21.178,21.2,8.588,8.6Z" transform="translate(-202.31 -0.038)"/>
          <path id="Path_4222" data-name="Path 4222" class="cls-1" d="M107.69,81.374l-1.64-.162a24.154,24.154,0,0,0-8.418,1.583L47.653,32.808a24.154,24.154,0,0,0,1.583-8.418l-.162-1.64A24.11,24.11,0,0,0,14.445,2.473L30.623,18.651a7.942,7.942,0,0,1,1.826,2.922,8.111,8.111,0,0,1-13.3,8.548L2.967,13.951A24.11,24.11,0,0,0,23.245,48.58l1.64.162A24.34,24.34,0,0,0,33.3,47.168L83.273,97.147a24.522,24.522,0,0,0-1.567,8.418l.17,1.64a24.256,24.256,0,0,0,24.182,22.713,23.841,23.841,0,0,0,10.439-2.435L100.319,111.3a8.288,8.288,0,0,1-1.843-2.914,8.091,8.091,0,0,1,7.582-10.942,7.984,7.984,0,0,1,2.825.552,7.787,7.787,0,0,1,2.914,1.826L127.975,116a24.011,24.011,0,0,0,2.435-10.439A24.294,24.294,0,0,0,107.69,81.374Z" transform="translate(-0.39 -0.038)"/>
        </g>
      </g>
    </g>
  </g>
</svg>
