<svg xmlns="http://www.w3.org/2000/svg" xmlns:xlink="http://www.w3.org/1999/xlink" viewBox="357.598 135.666 318.441 490.839">
  <defs>
    <style>
      .cls-1 {
        fill: #d1d3d4;
      }

      .cls-2 {
        fill: #e6e7e8;
      }

      .cls-3 {
        fill: #414042;
      }

      .cls-4 {
        fill: #231f20;
      }

      .cls-5 {
        fill: #6d6e71;
      }

      .cls-6 {
        fill: #bcbec0;
      }

      .cls-7 {
        fill: #fff;
      }

      .cls-8 {
        fill: #a7a9ac;
      }

      .cls-9 {
        fill: url(#linear-gradient);
      }

      .cls-10 {
        fill: #424245;
      }

      .cls-11 {
        fill: #302f30;
      }

      .cls-12 {
        fill: #262526;
      }

      .cls-13 {
        fill: #626366;
      }

      .cls-14 {
        fill: #323133;
      }

      .cls-15 {
        fill: #212021;
      }

      .cls-16 {
        fill: #0d0c0d;
      }

      .cls-17 {
        fill: #58595b;
      }

      .cls-18 {
        fill: #939598;
      }

      .cls-19 {
        fill: url(#linear-gradient-2);
      }

      .cls-20 {
        fill: #993a0b;
      }

      .cls-21 {
        fill: #f75e11;
      }
    </style>
    <linearGradient id="linear-gradient" x1="21.394" y1="0.841" x2="22.33" y2="0.111" gradientUnits="objectBoundingBox">
      <stop offset="0" stop-color="#e8e8e8"/>
      <stop offset="0.551" stop-color="#a5a6a6"/>
      <stop offset="1" stop-color="#737475"/>
    </linearGradient>
    <linearGradient id="linear-gradient-2" x1="18.613" y1="0.165" x2="19.819" y2="0.856" gradientUnits="objectBoundingBox">
      <stop offset="0" stop-color="#efeeee"/>
      <stop offset="0.179" stop-color="#e8e7e7"/>
      <stop offset="0.44" stop-color="#d5d4d5"/>
      <stop offset="0.748" stop-color="#b5b5b7"/>
      <stop offset="1" stop-color="#969799"/>
    </linearGradient>
  </defs>
  <g id="img" transform="translate(357.529 135.633)">
    <path id="Path_4097" data-name="Path 4097" class="cls-1" d="M260.739,190c-14.758-8.433-37.107-9.488-49.968-2.108l-56.714,32.89c2.319-4.428,0-9.7-6.747-13.7-9.277-5.271-23.192-5.9-31.2-1.265L46.531,246.084c-8.012,4.638-6.958,12.65,2.319,17.921s23.192,5.9,31.2,1.265l13.283-7.8c-5.482,7.379-1.9,16.867,9.7,23.613,14.758,8.433,37.107,9.488,49.968,2.108l111.321-64.3C277.184,211.508,275.5,198.647,260.739,190Z" transform="translate(45.527 202.746)"/>
    <g id="Group_1580" data-name="Group 1580" transform="translate(0.069 144.52)">
      <g id="Group_1579" data-name="Group 1579">
        <g id="Group_1550" data-name="Group 1550" transform="translate(142.379 226.302)">
          <path id="Path_4098" data-name="Path 4098" class="cls-2" d="M95.43,188.128,74.347,175.9,67.6,179.906l21.083,12.228Z" transform="translate(-67.6 -175.9)"/>
        </g>
        <g id="Group_1551" data-name="Group 1551" transform="translate(140.903 230.308)">
          <path id="Path_4099" data-name="Path 4099" class="cls-3" d="M89.459,190.028,68.376,177.8,66.9,186.233l21.083,12.228Z" transform="translate(-66.9 -177.8)"/>
        </g>
        <g id="Group_1552" data-name="Group 1552" transform="translate(148.071 219.134)">
          <path id="Path_4100" data-name="Path 4100" class="cls-4" d="M91.383,184.728,70.3,172.5l1.054,7.168L92.438,191.9Z" transform="translate(-70.3 -172.5)"/>
        </g>
        <g id="Group_1553" data-name="Group 1553" transform="translate(148.071 212.809)">
          <path id="Path_4101" data-name="Path 4101" class="cls-2" d="M97.708,181.728,76.625,169.5,70.3,175.825l21.083,12.228Z" transform="translate(-70.3 -169.5)"/>
        </g>
        <g id="Group_1554" data-name="Group 1554" transform="translate(134.578 238.741)">
          <path id="Path_4102" data-name="Path 4102" class="cls-2" d="M91.308,194.028,70.225,181.8,63.9,182.854l21.083,12.228Z" transform="translate(-63.9 -181.8)"/>
        </g>
        <g id="Group_1555" data-name="Group 1555" transform="translate(131.205 239.795)">
          <path id="Path_4103" data-name="Path 4103" class="cls-5" d="M86.757,194.528,65.673,182.3,62.3,190.944l21.083,12.228Z" transform="translate(-62.3 -182.3)"/>
        </g>
        <g id="Group_1556" data-name="Group 1556" transform="translate(151.023 199.948)">
          <path id="Path_4104" data-name="Path 4104" class="cls-2" d="M97.843,175.628,76.76,163.4l-5.06,8.012L92.783,183.64Z" transform="translate(-71.7 -163.4)"/>
        </g>
        <g id="Group_1557" data-name="Group 1557" transform="translate(151.023 207.959)">
          <path id="Path_4105" data-name="Path 4105" class="cls-4" d="M92.783,179.428,71.7,167.2l3.373,4.849,21.083,12.228Z" transform="translate(-71.7 -167.2)"/>
        </g>
        <g id="Group_1558" data-name="Group 1558" transform="translate(125.934 246.542)">
          <path id="Path_4106" data-name="Path 4106" class="cls-3" d="M86.154,199.626,65.071,187.4,59.8,185.5l21.083,12.228Z" transform="translate(-59.8 -185.5)"/>
        </g>
        <g id="Group_1559" data-name="Group 1559" transform="translate(120.663 246.542)">
          <path id="Path_4107" data-name="Path 4107" class="cls-2" d="M83.654,197.728,62.571,185.5,57.3,193.3l21.083,12.228Z" transform="translate(-57.3 -185.5)"/>
        </g>
        <g id="Group_1560" data-name="Group 1560" transform="translate(151.023 188.984)">
          <path id="Path_4108" data-name="Path 4108" class="cls-2" d="M96.157,170.428,75.073,158.2,71.7,166.844l21.083,12.228Z" transform="translate(-71.7 -158.2)"/>
        </g>
        <g id="Group_1561" data-name="Group 1561" transform="translate(110.754 249.705)">
          <path id="Path_4109" data-name="Path 4109" class="cls-6" d="M80.008,199.228,58.925,187,52.6,193.114l21.083,12.439Z" transform="translate(-52.6 -187)"/>
        </g>
        <g id="Group_1562" data-name="Group 1562" transform="translate(148.071 181.605)">
          <path id="Path_4110" data-name="Path 4110" class="cls-3" d="M92.438,166.928,71.354,154.7,70.3,162.923l21.083,12.228Z" transform="translate(-70.3 -154.7)"/>
        </g>
        <g id="Group_1563" data-name="Group 1563" transform="translate(102.742 249.072)">
          <path id="Path_4111" data-name="Path 4111" class="cls-3" d="M76.63,198.928,55.547,186.7,48.8,190.284l21.083,12.439Z" transform="translate(-48.8 -186.7)"/>
        </g>
        <g id="Group_1564" data-name="Group 1564" transform="translate(141.114 178.443)">
          <path id="Path_4112" data-name="Path 4112" class="cls-3" d="M88.083,165.428,67,153.2l1.265,6.747,21.083,12.228Z" transform="translate(-67 -153.2)"/>
        </g>
        <g id="Group_1565" data-name="Group 1565" transform="translate(97.471 244.434)">
          <path id="Path_4113" data-name="Path 4113" class="cls-3" d="M73.708,196.728,52.625,184.5l-6.325.843,21.083,12.228Z" transform="translate(-46.3 -184.5)"/>
        </g>
        <g id="Group_1566" data-name="Group 1566" transform="translate(146.385 155.435)">
          <path id="Path_4114" data-name="Path 4114" class="cls-7" d="M104.077,157.7c-3.584-2.108-6.958-4.006-10.542-6.114s-6.958-4.006-10.542-6.114A24.173,24.173,0,0,0,69.5,142.314l21.083,12.228A23.753,23.753,0,0,1,104.077,157.7Z" transform="translate(-69.5 -142.288)"/>
        </g>
        <g id="Group_1567" data-name="Group 1567" transform="translate(145.331 155.462)">
          <path id="Path_4115" data-name="Path 4115" class="cls-8" d="M91.138,154.528,70.054,142.3H69l21.083,12.228Z" transform="translate(-69 -142.3)"/>
        </g>
        <g id="Group_1568" data-name="Group 1568" transform="translate(131.205 179.918)">
          <path id="Path_4116" data-name="Path 4116" class="cls-3" d="M83.383,166.128,62.3,153.9l3.584,4.638,21.083,12.228Z" transform="translate(-62.3 -153.9)"/>
        </g>
        <g id="Group_1569" data-name="Group 1569" transform="translate(95.784 234.314)">
          <path id="Path_4117" data-name="Path 4117" class="cls-3" d="M71.643,194.248,50.56,182.019,45.5,179.7l21.083,12.439Z" transform="translate(-45.5 -179.7)"/>
        </g>
        <g id="Group_1570" data-name="Group 1570" transform="translate(137.741 155.462)">
          <path id="Path_4118" data-name="Path 4118" class="cls-1" d="M94.284,154.528,73.2,142.3a54.469,54.469,0,0,0-7.8,1.265l21.083,12.228A54.453,54.453,0,0,1,94.284,154.528Z" transform="translate(-65.4 -142.3)"/>
        </g>
        <g id="Group_1571" data-name="Group 1571" transform="translate(129.94 156.516)">
          <path id="Path_4119" data-name="Path 4119" class="cls-6" d="M61.7,142.8c6.958,4.006,14.126,8.223,21.083,12.228,1.9,1.054,4.638.843,7.8.422L69.5,143.222C66.338,143.643,63.6,143.854,61.7,142.8Z" transform="translate(-61.7 -142.8)"/>
        </g>
        <g id="Group_1572" data-name="Group 1572" transform="translate(77.942 220.609)">
          <path id="Path_4120" data-name="Path 4120" class="cls-2" d="M51.085,228.228l21.083,12.228a26.552,26.552,0,0,1-9.909-10.963c-5.693-11.385-5.271-27.619-.211-44.064L40.964,173.2c-5.06,16.656-5.482,32.679.211,44.064A24.012,24.012,0,0,0,51.085,228.228Z" transform="translate(-37.037 -173.2)"/>
        </g>
        <g id="Group_1573" data-name="Group 1573" transform="translate(51.72 134.8)">
          <path id="Path_4121" data-name="Path 4121" class="cls-3" d="M45.683,144.728,24.6,132.5c1.687.843,2.53,3.373,4.428,7.168,12.228,24.878,25.089,51.022,27.83,56.714,2.741,5.482,1.476,9.7-2.108,21.927l21.083,12.228c3.373-12.228,4.849-16.445,2.108-21.927s-15.6-31.836-27.83-56.714C48.213,148.1,47.37,145.572,45.683,144.728Z" transform="translate(-24.6 -132.5)"/>
        </g>
        <g id="Group_1574" data-name="Group 1574" transform="translate(57.202 78.718)">
          <path id="Path_4122" data-name="Path 4122" class="cls-1" d="M52.078,118.128,31,105.9l-3.8,4.006,21.083,12.228Z" transform="translate(-27.2 -105.9)"/>
        </g>
        <g id="Group_1575" data-name="Group 1575" transform="translate(30.637 82.724)">
          <path id="Path_4123" data-name="Path 4123" class="cls-4" d="M14.6,118.763c6.958,4.006,14.126,8.223,21.083,12.228,2.741,1.476,11.174-.211,18.553-4.638a29.541,29.541,0,0,0,8.012-6.325L41.165,107.8a33.155,33.155,0,0,1-8.012,6.325C25.563,118.553,17.341,120.239,14.6,118.763Z" transform="translate(-14.6 -107.8)"/>
        </g>
        <g id="Group_1576" data-name="Group 1576" transform="translate(60.575)">
          <path id="Path_4124" data-name="Path 4124" class="cls-3" d="M83.2,85.929,62.112,73.7c-7.168-4.217-15.18-5.482-18.764-5.06a12.575,12.575,0,0,0-3.8,1.476c-5.271,2.952-11.174,9.909-9.909,12.65,1.687,3.373,12.439,25.3,14.126,28.884,1.9,3.8-6.114,26.143-14.969,35.631L49.883,159.51c8.644-9.277,16.656-31.836,14.969-35.631-1.9-3.8-12.439-25.511-14.126-28.884-1.265-2.741,4.638-9.7,9.909-12.65a9.469,9.469,0,0,1,3.8-1.476C68.015,80.447,76.027,81.923,83.2,85.929Z" transform="translate(-28.8 -68.564)"/>
        </g>
        <g id="Group_1577" data-name="Group 1577" transform="translate(0 78.929)">
          <path id="Path_4125" data-name="Path 4125" class="cls-4" d="M14.893,165.455c3.584,2.108,6.958,4.006,10.542,6.114s6.958,4.006,10.542,6.114c-4.217-2.53-8.012-6.747-11.174-13.283-6.114-12.439-3.373-38.583-1.054-46.173L2.665,106c-2.108,7.59-5.06,33.523,1.054,46.173C6.881,158.5,10.676,162.925,14.893,165.455Z" transform="translate(-0.069 -106)"/>
        </g>
        <g id="Group_1578" data-name="Group 1578" transform="translate(2.385 63.412)">
          <path id="Path_4126" data-name="Path 4126" class="cls-5" d="M35.144,110.995c-6.958-4.006-14.126-8.223-21.083-12.228a2.137,2.137,0,0,0-2.108.422c-3.373,1.9-9.066,9.488-10.753,14.969l21.083,12.228c1.687-5.693,7.168-13.072,10.753-14.969C33.879,110.784,34.512,110.573,35.144,110.995Z" transform="translate(-1.2 -98.64)"/>
        </g>
      </g>
    </g>
    <g id="Group_1581" data-name="Group 1581" transform="translate(20.731 156.761)">
      <path id="Path_4127" data-name="Path 4127" class="cls-9" d="M99.75,313.52c0-28.674,14.126-62.2,35.842-90.237-6.325-12.861-20.662-42.378-26.143-53.552-4.006-8.012-5.271-7.8,1.054-21.716,9.488-20.24,13.072-39.848,4.217-57.769C108.6,77.807,90.895,73.8,85.413,74.433a12.575,12.575,0,0,0-3.8,1.476c-5.271,2.952-11.174,9.909-9.909,12.65,1.687,3.373,12.439,25.3,14.126,28.884,1.9,3.8-6.114,26.143-14.969,35.631l-3.8,4.006a33.154,33.154,0,0,1-8.012,6.325c-8.433,4.849-17.921,6.536-19.186,3.8-1.9-3.8-12.439-25.511-14.126-28.884-.422-.843-1.265-.843-2.53-.211-3.373,1.9-9.066,9.488-10.753,14.969-2.108,7.59-5.06,33.523,1.054,46.173,8.855,17.921,22.348,19.186,38.372,11.807,10.753-4.638,10.331-2.952,14.337,5.06,12.228,24.878,25.089,51.022,27.83,56.714,2.741,5.482,1.476,9.7-2.108,21.927-5.06,16.656-5.482,32.679.211,44.064a24.481,24.481,0,0,0,22.348,14.337C105.232,344.934,99.75,331.44,99.75,313.52Z" transform="translate(-9.869 -74.37)"/>
      <path id="Path_4128" data-name="Path 4128" class="cls-10" d="M108.371,252.736c24.246-26.143,35.209-65.148,24.668-86.864-4.849-9.909-13.283-14.548-23.4-14.337h-1.054a54.462,54.462,0,0,0-7.8,1.265c-4.428.843-8.012.843-9.7-2.319-.422-.843-1.476-2.741-2.741-5.482C66.626,173.041,52.5,206.564,52.5,235.237c0,17.921,5.482,31.2,14.969,39.637,6.747,0,14.126-2.108,21.716-6.536A83.235,83.235,0,0,0,108.371,252.736ZM83.7,250.417l-3.373-4.638-6.325,6.114-1.265-6.958-6.747,3.8,1.054-8.223-6.325.843,3.373-8.644-5.06-2.108,5.06-8.012-3.373-4.849,6.325-6.325-1.054-7.168,6.747-4.006,1.265-8.433,6.325-1.054,3.373-8.644,5.271,1.9,5.271-8.012,3.373,4.638,6.325-6.114,1.265,6.958,6.747-3.8L110.9,185.9l6.325-.843-3.373,8.644,5.06,2.108-5.06,8.012,3.373,4.849L110.9,215l1.054,7.168-6.747,4.006-1.265,8.433-6.325,1.054L94.034,244.3l-5.271-1.9Z" transform="translate(37.381 3.913)"/>
    </g>
    <g id="Group_1617" data-name="Group 1617" transform="translate(138.02 0.033)">
      <g id="Group_1608" data-name="Group 1608" transform="translate(9.277 19.075)">
        <g id="Group_1607" data-name="Group 1607">
          <g id="Group_1582" data-name="Group 1582" transform="translate(85.388 341.383)">
            <path id="Path_4129" data-name="Path 4129" class="cls-5" d="M143.079,195.878,110.4,176.9l8.644-5.9,32.89,19.186Z" transform="translate(-110.4 -171)"/>
          </g>
          <g id="Group_1583" data-name="Group 1583" transform="translate(84.334 347.286)">
            <path id="Path_4130" data-name="Path 4130" class="cls-11" d="M142.579,203.528,109.9,184.342l1.054-10.542,32.679,18.975Z" transform="translate(-109.9 -173.8)"/>
          </g>
          <g id="Group_1584" data-name="Group 1584" transform="translate(92.135 332.739)">
            <path id="Path_4131" data-name="Path 4131" class="cls-12" d="M148.388,194.73,115.5,175.544l-1.9-8.644,32.679,18.975Z" transform="translate(-113.6 -166.9)"/>
          </g>
          <g id="Group_1585" data-name="Group 1585" transform="translate(92.135 323.884)">
            <path id="Path_4132" data-name="Path 4132" class="cls-5" d="M146.279,190.53,113.6,171.555l8.012-8.855,32.679,19.186Z" transform="translate(-113.6 -162.7)"/>
          </g>
          <g id="Group_1586" data-name="Group 1586" transform="translate(71.895 359.936)">
            <path id="Path_4133" data-name="Path 4133" class="cls-3" d="M136.679,210.371,104,191.185l4.006-11.385,32.679,19.186Z" transform="translate(-104 -179.8)"/>
          </g>
          <g id="Group_1587" data-name="Group 1587" transform="translate(75.9 357.828)">
            <path id="Path_4134" data-name="Path 4134" class="cls-5" d="M138.579,200.094,105.9,180.908l8.433-2.108,32.679,19.186Z" transform="translate(-105.9 -178.8)"/>
          </g>
          <g id="Group_1588" data-name="Group 1588" transform="translate(95.288 307.445)">
            <rect id="Rectangle_73" data-name="Rectangle 73" class="cls-5" width="12.439" height="37.95" transform="translate(0 10.738) rotate(-59.676)"/>
          </g>
          <g id="Group_1589" data-name="Group 1589" transform="translate(95.297 318.191)">
            <path id="Path_4135" data-name="Path 4135" class="cls-12" d="M152.629,184.878l-32.679-19.186L115.1,160l32.679,19.186Z" transform="translate(-115.1 -160)"/>
          </g>
          <g id="Group_1590" data-name="Group 1590" transform="translate(64.726 369.635)">
            <path id="Path_4136" data-name="Path 4136" class="cls-5" d="M133.279,203.375,100.6,184.4l7.168,1.687,32.679,19.186Z" transform="translate(-100.6 -184.4)"/>
          </g>
          <g id="Group_1591" data-name="Group 1591" transform="translate(58.19 369.635)">
            <path id="Path_4137" data-name="Path 4137" class="cls-3" d="M130.179,214.128,97.5,194.942l6.536-10.542,32.679,18.975Z" transform="translate(-97.5 -184.4)"/>
          </g>
          <g id="Group_1592" data-name="Group 1592" transform="translate(94.454 294.156)">
            <path id="Path_4138" data-name="Path 4138" class="cls-13" d="M147.59,178.96,114.7,159.985l3.8-11.385,32.679,19.186Z" transform="translate(-114.7 -148.6)"/>
          </g>
          <g id="Group_1593" data-name="Group 1593" transform="translate(45.119 374.695)">
            <path id="Path_4139" data-name="Path 4139" class="cls-14" d="M123.979,214.63,91.3,195.444l8.012-8.644,32.89,19.186Z" transform="translate(-91.3 -186.8)"/>
          </g>
          <g id="Group_1594" data-name="Group 1594" transform="translate(89.815 285.512)">
            <path id="Path_4140" data-name="Path 4140" class="cls-5" d="M145.39,174.228,112.5,155.042l.843-10.542,32.679,19.186Z" transform="translate(-112.5 -144.5)"/>
          </g>
          <g id="Group_1595" data-name="Group 1595" transform="translate(34.155 374.905)">
            <path id="Path_4141" data-name="Path 4141" class="cls-15" d="M118.779,211.568,86.1,192.382l8.644-5.482,32.89,19.186Z" transform="translate(-86.1 -186.9)"/>
          </g>
          <g id="Group_1596" data-name="Group 1596" transform="translate(79.695 282.56)">
            <path id="Path_4142" data-name="Path 4142" class="cls-3" d="M142.7,170.719l-32.679-18.975L107.7,143.1l32.679,19.186Z" transform="translate(-107.7 -143.1)"/>
          </g>
          <g id="Group_1597" data-name="Group 1597" transform="translate(26.565 369.845)">
            <path id="Path_4143" data-name="Path 4143" class="cls-16" d="M115.179,205.583,82.5,186.4l8.433-1.9,32.679,19.186Z" transform="translate(-82.5 -184.5)"/>
          </g>
          <g id="Group_1598" data-name="Group 1598" transform="translate(66.624 285.933)">
            <path id="Path_4144" data-name="Path 4144" class="cls-3" d="M139.239,169.157,106.56,149.971,101.5,144.7l32.679,18.975Z" transform="translate(-101.5 -144.7)"/>
          </g>
          <g id="Group_1599" data-name="Group 1599" transform="translate(23.192 358.46)">
            <path id="Path_4145" data-name="Path 4145" class="cls-3" d="M113.79,198.286,80.9,179.1l7.168,2.108,32.679,19.186Z" transform="translate(-80.9 -179.1)"/>
          </g>
          <g id="Group_1600" data-name="Group 1600" transform="translate(0 313.342)">
            <path id="Path_4146" data-name="Path 4146" class="cls-4" d="M120.711,272.183C109.748,265.858,99,259.322,88.032,253,76.858,246.461,69.9,232.757,69.9,213.149c0-17.921,5.693-37.528,15.18-55.449l32.679,19.186c-9.488,17.921-15.18,37.529-15.18,55.449C102.79,251.943,109.537,265.647,120.711,272.183Z" transform="translate(-69.9 -157.7)"/>
          </g>
          <g id="Group_1601" data-name="Group 1601" transform="translate(15.391 311.444)">
            <path id="Path_4147" data-name="Path 4147" class="cls-6" d="M109.879,177.673,77.2,158.487a12.52,12.52,0,0,0,.843-1.687l32.679,19.186A12.434,12.434,0,0,0,109.879,177.673Z" transform="translate(-77.2 -156.8)"/>
          </g>
          <g id="Group_1602" data-name="Group 1602" transform="translate(16.234 298.794)">
            <path id="Path_4148" data-name="Path 4148" class="cls-17" d="M110.279,182.636,77.6,163.45a126.988,126.988,0,0,1,7.8-12.65l32.679,19.186A126.993,126.993,0,0,0,110.279,182.636Z" transform="translate(-77.6 -150.8)"/>
          </g>
          <g id="Group_1603" data-name="Group 1603" transform="translate(23.824 156.059)">
            <path id="Path_4149" data-name="Path 4149" class="cls-5" d="M86.26,83.1l32.679,19.186c3.584,2.108,2.952,6.114,2.952,16.234V225.2c0,5.9-3.584,12.439-8.012,19.818L81.2,225.835c4.428-7.379,8.012-13.915,8.012-19.818V99.334C89.212,89.214,89.844,85.208,86.26,83.1Z" transform="translate(-81.2 -83.1)"/>
          </g>
          <g id="Group_1604" data-name="Group 1604" transform="translate(59.666 84.376)">
            <path id="Path_4150" data-name="Path 4150" class="cls-7" d="M130.879,71.448,98.2,52.263l5.482-3.163,32.679,19.186Z" transform="translate(-98.2 -49.1)"/>
          </g>
          <g id="Group_1605" data-name="Group 1605" transform="translate(34.366 87.327)">
            <path id="Path_4151" data-name="Path 4151" class="cls-18" d="M118.879,69.686C107.916,63.361,97.163,56.825,86.2,50.5c6.114,3.584,17.078,4.849,25.511,0L144.39,69.686C135.746,74.746,124.783,73.27,118.879,69.686Z" transform="translate(-86.2 -50.5)"/>
          </g>
          <g id="Group_1606" data-name="Group 1606" transform="translate(23.403)">
            <path id="Path_4152" data-name="Path 4152" class="cls-19" d="M195.061,284.472c12.228,6.114,20.029,20.24,20.029,40.9,0,39.426-27.83,87.5-62.407,107.315-34.366,19.818-62.407,3.8-62.407-35.842,0-17.921,5.693-37.529,15.18-55.449a12.432,12.432,0,0,1,.843-1.687,126.985,126.985,0,0,1,7.8-12.65c4.428-7.379,8.012-13.915,8.012-19.818V200.56c0-14.548,1.265-16.656-10.963-18.132C93.018,180.952,81,169.356,81,136.677c0-22.77,14.548-58.19,19.818-67.467a36.863,36.863,0,0,1,12.228-12.018c3.8-2.108,6.747-2.53,6.747.422V109.9c0,6.747,17.71,12.861,29.938,5.9l5.482-3.163c12.228-6.958,29.938-33.523,29.938-40.269V20.086c0-2.952,2.952-5.9,6.747-8.223,4.217-2.53,9.488-3.584,12.228-2.108,5.482,3.163,19.818,21.927,19.818,44.7,0,32.468-12.018,58.19-30.149,80.328-12.018,15.18-10.963,16.023-10.963,30.571V268.027C183.255,277.936,186.417,279.412,195.061,284.472Zm-4.638,67.678-4.849-5.693L191.9,335.7l-6.958-2.108,3.8-11.174-8.433,1.9.843-10.542-8.855,5.482-2.319-8.433-8.012,8.644-5.06-5.482-6.325,10.542-7.168-1.687L139.4,334.018l-8.433,2.108-1.054,10.542-8.855,5.9,1.9,8.644-8.012,8.855,4.849,5.693-6.325,10.753,6.958,2.108-3.8,11.174,8.433-1.9-.843,10.542,8.855-5.482,2.319,8.433,8.012-8.644,5.06,5.482,6.325-10.542,7.168,1.687,4.006-11.385,8.433-2.108,1.054-10.542,8.855-5.9-1.9-8.644,8.012-8.644" transform="translate(-81 -9.08)"/>
          </g>
        </g>
      </g>
      <g id="Group_1609" data-name="Group 1609">
        <path id="Path_4153" data-name="Path 4153" class="cls-5" d="M104.3,50.5l32.89,18.975c2.319-2.319,4.849-5.06,7.168-7.8L111.468,42.7C108.938,45.441,106.619,48.182,104.3,50.5Z" transform="translate(-22.496 47.258)"/>
        <path id="Path_4154" data-name="Path 4154" class="cls-17" d="M100.8,52.093l32.679,19.186a41.5,41.5,0,0,0,7.59-5.9L108.179,46.4A40.974,40.974,0,0,1,100.8,52.093Z" transform="translate(-26.375 51.358)"/>
        <path id="Path_4155" data-name="Path 4155" class="cls-3" d="M163,19.782,130.318.807c-2.741-1.687-7.8-.422-12.018,1.9L151.19,21.68C155.407,19.361,160.256,18.306,163,19.782Z" transform="translate(-6.979 -0.033)"/>
        <path id="Path_4156" data-name="Path 4156" class="cls-3" d="M155.77,24.608v-.633L123.091,5V57.709c0,4.217-7.168,16.445-15.391,26.776l32.89,18.975c8.223-10.12,15.391-22.138,15.391-26.565C155.77,70.148,155.77,30.722,155.77,24.608Z" transform="translate(-18.728 5.473)"/>
        <path id="Path_4157" data-name="Path 4157" class="cls-5" d="M154.426,20.486a.736.736,0,0,0,.422-.211L121.958,1.3a.206.206,0,0,0-.211.211C118.163,3.619,115.422,6.36,115,9.1l32.679,18.975C148.1,25.124,151.053,22.383,154.426,20.486Z" transform="translate(-10.637 1.372)"/>
        <path id="Path_4158" data-name="Path 4158" class="cls-5" d="M113.6,44.275,80.714,25.3a30.878,30.878,0,0,0-5.271,6.747c-.211.422-.633,1.054-.843,1.476L107.49,52.5a5.284,5.284,0,0,1,.843-1.476A30.878,30.878,0,0,1,113.6,44.275Z" transform="translate(-55.414 27.972)"/>
        <path id="Path_4159" data-name="Path 4159" class="cls-4" d="M65.5,95.191c0,23.192,6.114,35.842,16.234,41.745l32.679,19.186c-10.12-5.9-16.234-18.553-16.234-41.745,0-21.716,13.283-55.239,19.186-66.2L84.475,29.2C78.783,40.374,65.5,73.686,65.5,95.191Z" transform="translate(-65.5 32.295)"/>
        <path id="Path_4160" data-name="Path 4160" class="cls-4" d="M117.137,42.79c2.53-1.476,4.849-2.108,5.9-1.476-10.963-6.325-21.716-12.861-32.679-19.186-1.054-.632-3.373,0-5.9,1.476A46.553,46.553,0,0,0,77.5,28.875L110.39,47.85A62.393,62.393,0,0,1,117.137,42.79Z" transform="translate(-52.2 24.186)"/>
      </g>
      <g id="Group_1616" data-name="Group 1616" transform="translate(95.508 180.59)">
        <g id="Group_1615" data-name="Group 1615">
          <g id="Group_1610" data-name="Group 1610" transform="translate(0.422 109.66)">
            <path id="Path_4161" data-name="Path 4161" class="cls-20" d="M119.223,146.977l-5.482-3.163C112.054,142.76,111,140.652,111,137.7l5.482,3.163C116.482,143.814,117.536,145.923,119.223,146.977Z" transform="translate(-111 -137.7)"/>
          </g>
          <g id="Group_1611" data-name="Group 1611" transform="translate(0 17.947)">
            <path id="Path_4162" data-name="Path 4162" class="cls-20" d="M116.7,188.865l-5.482-3.163L110.8,94.2l5.482,3.163Z" transform="translate(-110.8 -94.2)"/>
          </g>
          <g id="Group_1612" data-name="Group 1612" transform="translate(9.698)">
            <path id="Path_4163" data-name="Path 4163" class="cls-20" d="M122.358,86.346l5.482,3.163c-1.687-1.054-4.217-.843-6.958.633L115.4,86.979Q119.511,84.765,122.358,86.346Z" transform="translate(-115.4 -85.687)"/>
          </g>
          <g id="Group_1613" data-name="Group 1613" transform="translate(0 1.291)">
            <path id="Path_4164" data-name="Path 4164" class="cls-20" d="M116.282,106.118l-5.482-3.163c0-6.114,4.217-13.493,9.7-16.656l5.482,3.163C120.709,92.625,116.282,100,116.282,106.118Z" transform="translate(-110.8 -86.3)"/>
          </g>
          <g id="Group_1614" data-name="Group 1614" transform="translate(5.482 3.087)">
            <path id="Path_4165" data-name="Path 4165" class="cls-21" d="M123.1,88.519c5.271-3.163,9.7-.633,9.7,5.482l.211,91.5c0,6.114-4.217,13.493-9.7,16.656-5.271,3.163-9.7.633-9.7-5.482l-.211-91.5C113.4,99.06,117.828,91.681,123.1,88.519Z" transform="translate(-113.4 -87.152)"/>
          </g>
        </g>
      </g>
    </g>
  </g>
</svg>
