<svg xmlns="http://www.w3.org/2000/svg" xmlns:xlink="http://www.w3.org/1999/xlink" viewBox="882 -419 392.1 444.1">
  <defs>
    <style>
      .cls-1 {
        fill: #dbdbdb;
      }

      .cls-2 {
        fill: #d9d9d9;
      }

      .cls-3 {
        fill: #69d6f5;
      }

      .cls-4 {
        fill: #c2c2c2;
      }

      .cls-5 {
        fill: #e9e9e9;
      }

      .cls-6 {
        fill: #6c6c6c;
      }

      .cls-7 {
        fill: #d3d3d3;
      }

      .cls-8 {
        fill: #cacaca;
      }

      .cls-9 {
        fill: #eaeaea;
      }

      .cls-10 {
        fill: url(#linear-gradient);
      }

      .cls-11 {
        fill: #e1e1e1;
      }

      .cls-12 {
        fill: gray;
      }

      .cls-13 {
        fill: url(#linear-gradient-2);
      }

      .cls-14 {
        fill: url(#linear-gradient-3);
      }
    </style>
    <linearGradient id="linear-gradient" x1="0.134" y1="0.669" x2="0.896" y2="0.318" gradientUnits="objectBoundingBox">
      <stop offset="0" stop-color="#7b7b7b"/>
      <stop offset="0.196" stop-color="#848484"/>
      <stop offset="0.511" stop-color="#9b9b9b"/>
      <stop offset="0.903" stop-color="#c1c1c1"/>
      <stop offset="1" stop-color="#ccc"/>
    </linearGradient>
    <linearGradient id="linear-gradient-2" x1="0.897" y1="0.383" x2="-0.127" y2="0.685" gradientUnits="objectBoundingBox">
      <stop offset="0" stop-color="#ccc"/>
      <stop offset="0.183" stop-color="#c6c6c6"/>
      <stop offset="0.421" stop-color="#b6b6b6"/>
      <stop offset="0.689" stop-color="#9b9b9b"/>
      <stop offset="0.978" stop-color="#767676"/>
      <stop offset="1" stop-color="#737373"/>
    </linearGradient>
    <linearGradient id="linear-gradient-3" x1="0.001" y1="0.72" x2="0.998" y2="0.28" gradientUnits="objectBoundingBox">
      <stop offset="0" stop-color="#919191"/>
      <stop offset="0.238" stop-color="#9a9a9a"/>
      <stop offset="0.619" stop-color="#b1b1b1"/>
      <stop offset="1" stop-color="#cfcfcf"/>
    </linearGradient>
  </defs>
  <g id="img" transform="translate(882 -419)">
    <g id="Group_1621" data-name="Group 1621">
      <path id="Path_4166" data-name="Path 4166" class="cls-1" d="M214.6,266.1l-8.5,20.7,17.7,10.3c2.5-6.7,8.5-10.7,12.2-16.8l-3.5-4.3Z"/>
      <path id="Path_4167" data-name="Path 4167" class="cls-2" d="M137,371.6l17.7,10.3,3.5-15.9-17.7-10.3Z"/>
      <g id="Group_1620" data-name="Group 1620">
        <path id="Path_4168" data-name="Path 4168" class="cls-3" d="M137,371.6l13.9,8.1h0Z"/>
        <g id="Group_1619" data-name="Group 1619">
          <path id="Path_4169" data-name="Path 4169" class="cls-4" d="M159,424.4l-17.7-10.3,6,9.2L165,433.6s4.3-8.5,9.8-18.9a12.956,12.956,0,0,1-8.4-3Z"/>
          <path id="Path_4170" data-name="Path 4170" class="cls-2" d="M141.3,414.1,159,424.4l11.7-20.1L153.1,394Z"/>
          <path id="Path_4171" data-name="Path 4171" class="cls-5" d="M241.4,286.9l4.9,17.8,12.7-7.5,16.1-13.5-17.7-10.3Z"/>
          <path id="Path_4172" data-name="Path 4172" class="cls-4" d="M177.9,433.8l17.7,10.3,3-34.3-20.5,5Z"/>
          <path id="Path_4173" data-name="Path 4173" class="cls-6" d="M246.3,304.7,241.4,287l-2.9-3.6c-4.7,8.4-7.1,17.9-11.3,26.5-1.8,3.8-3.5,8.1-5.4,12.2,2.5,2.9,3.9,7.2,3.9,12.7,0,14.9-10.5,33-23.4,40.5a10.116,10.116,0,0,1-6,1.3c-1.3-.1-12.8,21.5-21.5,38.1.9,0,2,.1,3.2.1l20.5-5a80.813,80.813,0,0,0,18.6-13.1l11.5,6.9,10.9-13.3L236,374a122.642,122.642,0,0,0,11.8-23.8l16.4-9.3,7.3-7.6.1-6-17.8-4.2C254.2,315.3,248.1,310.5,246.3,304.7Z"/>
          <path id="Path_4174" data-name="Path 4174" class="cls-2" d="M271.4,333.4l13.9,1.9-13.7-8Z"/>
        </g>
        <path id="Path_4175" data-name="Path 4175" class="cls-4" d="M154.7,381.9l-3.8-2.2a51.7,51.7,0,0,0,2.2,14.3l17.7,10.3-1.2-20.8Z"/>
      </g>
      <path id="Path_4176" data-name="Path 4176" class="cls-5" d="M140.5,355.7,158.2,366l16.5-9.3L157,346.4Z"/>
      <path id="Path_4177" data-name="Path 4177" class="cls-7" d="M157,346.4l17.7,10.3,11.7-23.6-17.7-10.3A123.479,123.479,0,0,0,157,346.4Z"/>
      <path id="Path_4178" data-name="Path 4178" class="cls-8" d="M165,306.3l3.7,16.4L186.4,333l-3.7-16.4Z"/>
      <path id="Path_4179" data-name="Path 4179" class="cls-9" d="M165,306.3l17.7,10.3a73.285,73.285,0,0,1,6.7-5.1c1.5-.9,4.3-8.2,4.3-8.2L176,293Z"/>
      <path id="Path_4180" data-name="Path 4180" class="cls-5" d="M187.5,300l.1-.1-11.7-6.8Z"/>
      <path id="Path_4181" data-name="Path 4181" class="cls-5" d="M187.6,299.9l6,3.5,11.6,6.9s10.9,8,13.3,9.3c.4-.9.8-1.8,1.1-2.6,2.7-5.7,2-13.9,4.2-19.8l-17.7-10.3A76.889,76.889,0,0,0,187.6,299.9Z"/>
      <path id="Path_4182" data-name="Path 4182" class="cls-10" d="M269.4,312.9l11.7-20-6-9.2-16,13.5a25.317,25.317,0,0,0-14.7-5.1l.1-19.1-12,2.9-8.7,21.2a78.73,78.73,0,0,0-18.6,13.1l-11.6-6.9-10.9,13.3,3.7,16.4a123.477,123.477,0,0,0-11.7,23.6L158.2,366l-3.5,15.9,14,2a56.48,56.48,0,0,0,2.1,20.4L159,424.4l6,9.2L181,420a25.567,25.567,0,0,0,14.7,5.1l-.1,19,12-2.9,8.7-21.1A80.813,80.813,0,0,0,234.9,407l11.5,6.9,10.9-13.3-3.7-16.3a122.642,122.642,0,0,0,11.8-23.8l16.4-9.3,3.5-15.9-13.9-2A56.857,56.857,0,0,0,269.4,312.9ZM220,385.6c-12.9,7.4-23.4,1.4-23.4-13.5s10.5-33,23.4-40.5c12.9-7.4,23.4-1.4,23.4,13.5S232.9,378.1,220,385.6Z"/>
      <path id="Path_4183" data-name="Path 4183" class="cls-5" d="M214.8,265.6l-.2.5,17.9,9.8,12-2.9-17.7-10.3Z"/>
    </g>
    <g id="Group_1624" data-name="Group 1624">
      <path id="Path_4184" data-name="Path 4184" class="cls-11" d="M240.3,21l-5.5,6.9c5.9,9.8,15.4,16.1,19.4,26.8l28.1-16.3-13.6-33Z"/>
      <path id="Path_4185" data-name="Path 4185" class="cls-1" d="M358.4,164.1l5.6,25.2,28.1-16.4-5.6-25.2Z"/>
      <g id="Group_1623" data-name="Group 1623">
        <path id="Path_4186" data-name="Path 4186" class="cls-3" d="M370,185.8l22.1-12.9L370,185.7Z"/>
        <g id="Group_1622" data-name="Group 1622">
          <path id="Path_4187" data-name="Path 4187" class="cls-8" d="M345.3,236.6c-5.1,3.8-8.1,4.5-13.3,4.8,8.6,16.5,15.5,30,15.5,30l28.1-16.3,9.6-14.6-28.1,16.3Z"/>
          <path id="Path_4188" data-name="Path 4188" class="cls-1" d="M338.5,224.9l18.6,31.9,28.1-16.4-18.6-31.9Z"/>
          <path id="Path_4189" data-name="Path 4189" class="cls-5" d="M172.8,33.3l25.4,21.5,20.3,11.8,7.8-28.2L200.9,16.9Z"/>
          <path id="Path_4190" data-name="Path 4190" class="cls-8" d="M294.2,233.6l4.8,54.5,28.1-16.3-.3-30.2Z"/>
          <path id="Path_4191" data-name="Path 4191" class="cls-12" d="M297.8,180.8a15.516,15.516,0,0,1-9.5-2c-20.5-11.8-37.1-40.6-37.1-64.3,0-8.8,2.3-15.7,6.3-20.2-3-6.6-5.6-13.4-8.5-19.5C242.3,61,238.5,46,231,32.6l-4.6,5.7-7.8,28.2c-2.9,9.2-12.6,16.9-11.8,29.3l-28.3,6.7.2,9.6,11.5,12,26,14.8A195.9,195.9,0,0,0,235,176.7l-5.9,25.9,17.4,21.1,18.3-10.9a124.5,124.5,0,0,0,29.6,20.8l32.6,7.9c2-.1,3.7-.1,5.2-.2C318.2,214.9,299.8,180.6,297.8,180.8Z"/>
          <path id="Path_4192" data-name="Path 4192" class="cls-5" d="M156.4,115.3l22.1-3.1-.2-9.6Z"/>
        </g>
        <path id="Path_4193" data-name="Path 4193" class="cls-7" d="M340.3,191.9l-1.9,33,28.1-16.3a82.8,82.8,0,0,0,3.4-22.8l-6,3.5Z"/>
      </g>
      <path id="Path_4194" data-name="Path 4194" class="cls-5" d="M332.2,149.2l26.2,14.9,28.1-16.4-26.2-14.8Z"/>
      <path id="Path_4195" data-name="Path 4195" class="cls-7" d="M313.6,111.7l18.6,37.5,28.1-16.3a198.406,198.406,0,0,0-18.6-37.5Z"/>
      <path id="Path_4196" data-name="Path 4196" class="cls-8" d="M313.6,111.7l28.1-16.4,5.9-26.1L319.5,85.6Z"/>
      <path id="Path_4197" data-name="Path 4197" class="cls-1" d="M302.2,64.5s4.4,11.6,6.8,13c2.6,1.5,10.6,8.1,10.6,8.1l28.1-16.3L330.3,48.2Z"/>
      <path id="Path_4198" data-name="Path 4198" class="cls-5" d="M311.9,59.1l18.4-11L311.7,59C311.8,59,311.8,59.1,311.9,59.1Z"/>
      <path id="Path_4199" data-name="Path 4199" class="cls-5" d="M254.2,54.6c3.5,9.4,2.4,22.5,6.7,31.5.6,1.2,1.2,2.6,1.8,4.1,3.8-2,21.1-14.7,21.1-14.7l18.4-11,9.5-5.6a125.044,125.044,0,0,0-29.4-20.7Z"/>
      <path id="Path_4200" data-name="Path 4200" class="cls-5" d="M249.4,0,221.3,16.3l19,4.7L268.7,5.4l-.3-.8Z"/>
      <path id="Path_4201" data-name="Path 4201" class="cls-13" d="M358.4,164.1l-26.2-14.9a198.406,198.406,0,0,0-18.6-37.5l5.9-26.1L302.1,64.5l-18.4,11a125,125,0,0,0-29.6-20.9L240.3,21l-19.1-4.6.2,30.3a41.179,41.179,0,0,0-23.3,8.1L172.7,33.3l-9.6,14.6,18.6,31.8c-2.9,9.2-4,20.1-3.3,32.5l-22.1,3.1,5.5,25.2,26,14.8a195.9,195.9,0,0,0,18.8,37.8L200.7,219l17.4,21.1,18.3-10.9A124.5,124.5,0,0,0,266,250l13.8,33.6,19.1,4.6-.2-30.2a41.179,41.179,0,0,0,23.3-8.1l25.5,21.5,9.6-14.6-18.6-31.9c2.8-9.2,4-20.1,3.3-32.4l22.2-3.2Zm-98.2,31c-20.5-11.8-37.1-40.6-37.1-64.3s16.6-33.3,37.1-21.4c20.5,11.8,37.1,40.6,37.1,64.3S280.7,207,260.2,195.1Z"/>
    </g>
    <g id="Group_1627" data-name="Group 1627">
      <path id="Path_4202" data-name="Path 4202" class="cls-1" d="M106.2,142.5,94.6,170.8l24.2,14.1c3.4-9.2,11.6-14.6,16.7-23l-4.8-5.9Z"/>
      <path id="Path_4203" data-name="Path 4203" class="cls-2" d="M0,286.7l24.2,14L29,279,4.8,265Z"/>
      <g id="Group_1626" data-name="Group 1626">
        <path id="Path_4204" data-name="Path 4204" class="cls-3" d="M19,297.7h0l-19-11Z"/>
        <g id="Group_1625" data-name="Group 1625">
          <path id="Path_4205" data-name="Path 4205" class="cls-4" d="M30.1,358.8l-24.2-14,8.2,12.5,24.2,14.1s5.9-11.6,13.4-25.8c-4.5-.2-7.1-.8-11.5-4.1Z"/>
          <path id="Path_4206" data-name="Path 4206" class="cls-2" d="M5.9,344.8l24.2,14,16-27.4L21.9,317.3Z"/>
          <path id="Path_4207" data-name="Path 4207" class="cls-5" d="M142.7,170.9l6.7,24.2L166.9,185l21.9-18.5-24.2-14.1Z"/>
          <path id="Path_4208" data-name="Path 4208" class="cls-4" d="M55.9,371.7l24.2,14.1,4.1-46.9-28.1,6.8Z"/>
          <path id="Path_4209" data-name="Path 4209" class="cls-12" d="M149.4,195.1l-6.7-24.2-4-4.9c-6.5,11.5-9.7,24.4-15.5,36.3-2.5,5.2-4.8,11.1-7.3,16.7,3.4,3.9,5.4,9.8,5.4,17.4,0,20.4-14.3,45.1-31.9,55.3a12.9,12.9,0,0,1-8.2,1.7c-1.7-.2-17.5,29.3-29.4,52.1,1.3.1,2.7.1,4.4.2l28.1-6.8A107.953,107.953,0,0,0,109.7,321l15.7,9.4,15-18.1L135.3,290a175.973,175.973,0,0,0,16.2-32.5l22.4-12.7,9.9-10.3.2-8.3-24.4-5.8C160.3,209.7,151.9,203.1,149.4,195.1Z"/>
          <path id="Path_4210" data-name="Path 4210" class="cls-2" d="M183.8,234.4l19,2.7-18.8-11Z"/>
        </g>
        <path id="Path_4211" data-name="Path 4211" class="cls-4" d="M24.2,300.7l-5.2-3a72.645,72.645,0,0,0,3,19.6l24.2,14.1L44.5,303Z"/>
      </g>
      <path id="Path_4212" data-name="Path 4212" class="cls-5" d="M4.8,265,29,279l22.5-12.8-24.2-14Z"/>
      <path id="Path_4213" data-name="Path 4213" class="cls-7" d="M27.3,252.2l24.2,14.1,16-32.3L43.3,219.9A170.37,170.37,0,0,0,27.3,252.2Z"/>
      <path id="Path_4214" data-name="Path 4214" class="cls-8" d="M38.2,197.4l5.1,22.5,24.2,14-5.1-22.4Z"/>
      <path id="Path_4215" data-name="Path 4215" class="cls-5" d="M38.2,197.4l24.2,14.1s6.9-5.7,9.1-7c2-1.2,5.8-11.1,5.8-11.1L53.1,179.3Z"/>
      <path id="Path_4216" data-name="Path 4216" class="cls-5" d="M69.2,188.6l8.2,4.8,15.8,9.4s14.9,10.9,18.2,12.7c.5-1.2,1.1-2.4,1.6-3.5,3.7-7.8,2.8-19,5.8-27.1L94.6,170.8A105.466,105.466,0,0,0,69.2,188.6Z"/>
      <path id="Path_4217" data-name="Path 4217" class="cls-5" d="M69,188.7c.1,0,.1-.1.2-.1l-16-9.3Z"/>
      <path id="Path_4218" data-name="Path 4218" class="cls-5" d="M106.4,141.8l-.2.7,24.4,13.4,16.4-4-24.2-14.1Z"/>
      <path id="Path_4219" data-name="Path 4219" class="cls-14" d="M181,206.4,197,179l-8.2-12.5L166.9,185a34.557,34.557,0,0,0-20-7l.2-26.1-16.4,4-11.9,29a108.95,108.95,0,0,0-25.5,18l-15.8-9.4-15,18.1L67.6,234a167.414,167.414,0,0,0-16,32.3L29,279l-4.8,21.7,19.1,2.7a78.456,78.456,0,0,0,2.8,27.9l-16,27.5,8.2,12.5,21.9-18.5a34.616,34.616,0,0,0,20.1,7l-.2,26,16.4-4,11.9-28.9A107.953,107.953,0,0,0,133.8,335l15.7,9.4,15-18.1L159.4,304a175.973,175.973,0,0,0,16.2-32.5L198,258.8l4.8-21.7-19-2.7A78.774,78.774,0,0,0,181,206.4Zm-67.5,99.4c-17.6,10.2-31.9,1.9-31.9-18.4,0-20.4,14.3-45.1,31.9-55.3s31.9-1.9,31.9,18.4S131.1,295.6,113.5,305.8Z"/>
    </g>
  </g>
</svg>
