<svg xmlns="http://www.w3.org/2000/svg" viewBox="280 -391 130.596 130">
  <defs>
    <style>
      .cls-1 {
        fill: #f7f7f7;
      }
    </style>
  </defs>
  <path id="two-settings-cogwheels" class="cls-1" d="M68.115,80.334l-3.557-7.9a34.475,34.475,0,0,0,8.579-9.12l8.1,3.069A3,3,0,0,0,85.1,64.646l2.977-7.857a3,3,0,0,0-1.742-3.866l-8.1-3.069a34.462,34.462,0,0,0-.382-12.515l7.9-3.557a3,3,0,0,0,1.5-3.965L83.8,22.156a3,3,0,0,0-3.965-1.5l-7.9,3.557a34.475,34.475,0,0,0-9.12-8.579l3.069-8.1A3,3,0,0,0,64.15,3.667L56.294.69a3,3,0,0,0-3.866,1.742l-3.068,8.1a34.375,34.375,0,0,0-12.515.381l-3.556-7.9a3,3,0,0,0-3.965-1.5L21.661,4.965a3,3,0,0,0-1.5,3.965l3.557,7.9a34.475,34.475,0,0,0-8.579,9.12l-8.1-3.069a3,3,0,0,0-3.866,1.742L.2,32.475a3,3,0,0,0,1.741,3.866l8.1,3.069a34.462,34.462,0,0,0,.382,12.515l-7.9,3.557a3,3,0,0,0-1.5,3.965l3.451,7.66a3,3,0,0,0,3.965,1.5l7.9-3.557a34.456,34.456,0,0,0,9.12,8.579l-3.069,8.1A3,3,0,0,0,24.123,85.6l7.857,2.977a3,3,0,0,0,3.866-1.742l3.068-8.1a34.388,34.388,0,0,0,12.515-.381l3.556,7.9a3,3,0,0,0,3.965,1.5l7.66-3.45A3,3,0,0,0,68.115,80.334Zm-4.969-28.5A20.306,20.306,0,0,1,36.934,63.642,20.329,20.329,0,0,1,25.127,37.43,20.306,20.306,0,0,1,51.339,25.622,20.328,20.328,0,0,1,63.147,51.835Zm66.66,40.94a3,3,0,0,0-2.08-.968l-5.647-.242a25.906,25.906,0,0,0-2.778-7.614l4.164-3.822a3,3,0,0,0,.182-4.236l-4.135-4.506a3,3,0,0,0-4.236-.182l-4.164,3.822a25.911,25.911,0,0,0-7.348-3.419l.242-5.647a3,3,0,0,0-2.867-3.123l-6.11-.262a3.009,3.009,0,0,0-3.123,2.867l-.242,5.647a25.935,25.935,0,0,0-7.614,2.777L80.228,69.7a3,3,0,0,0-4.236-.182l-4.506,4.135a3,3,0,0,0-.182,4.236l3.822,4.164A25.9,25.9,0,0,0,71.708,89.4l-5.647-.242a3.005,3.005,0,0,0-3.124,2.867l-.262,6.11a3,3,0,0,0,2.867,3.124l5.647.242a25.932,25.932,0,0,0,2.777,7.614L69.8,112.941a3,3,0,0,0-.182,4.236l4.135,4.506a3,3,0,0,0,4.236.182l4.164-3.822a25.91,25.91,0,0,0,7.348,3.419l-.242,5.647a3,3,0,0,0,2.867,3.123l6.11.262.128,0a3,3,0,0,0,3-2.869l.242-5.647a25.935,25.935,0,0,0,7.614-2.777l3.822,4.164a3,3,0,0,0,4.236.182l4.506-4.135a3,3,0,0,0,.182-4.236l-3.822-4.164a25.9,25.9,0,0,0,3.419-7.348l5.647.242a3,3,0,0,0,3.124-2.867l.262-6.11A3,3,0,0,0,129.807,92.775ZM96.035,110.5a13.981,13.981,0,0,1,.586-27.948q.3,0,.611.013a13.98,13.98,0,0,1-1.2,27.935Z" transform="translate(280 -391.496)"/>
</svg>
