<svg xmlns="http://www.w3.org/2000/svg" xmlns:xlink="http://www.w3.org/1999/xlink" viewBox="195.1 -1121.9 94.8 94.8">
  <defs>
    <style>
      .cls-1 {
        fill: url(#linear-gradient);
      }

      .cls-2 {
        fill: url(#linear-gradient-2);
      }
    </style>
    <linearGradient id="linear-gradient" x1="-0.001" y1="0.499" x2="0.999" y2="0.499" gradientUnits="objectBoundingBox">
      <stop offset="0" stop-color="#00b782"/>
      <stop offset="1" stop-color="#00afb7"/>
    </linearGradient>
    <linearGradient id="linear-gradient-2" x1="0" y1="0.5" x2="1" y2="0.5" xlink:href="#linear-gradient"/>
  </defs>
  <g id="Group_146" data-name="Group 146" transform="translate(195.1 -1122.014)">
    <path id="Path_88" data-name="Path 88" class="cls-1" d="M84.479,38.316,67.464,55.332a14.216,14.216,0,0,0,12.154,7.292c3.747,0,7.294-.261,9.723-2.431-2.845,4.689-7.992,7.292-14.585,7.292-5,0-11.531-1.922-14.585-4.862h0c.208.56,2.361,1.8,2.431,2.431,1.18,4.409,6.117,7.292,12.154,7.292,3.747,0,7.294-.261,9.723-2.431-2.845,4.689-7.992,7.292-14.585,7.292A17.851,17.851,0,0,1,55.31,69.916L38.295,86.932l21.877,19.446,46.185-46.185Z" transform="translate(-11.556 -11.464)"/>
    <path id="Path_89" data-name="Path 89" class="cls-2" d="M26.738,43.868c-3.747,0-7.294,2.692-9.723,4.862,2.845-4.689,10.423-9.723,17.015-9.723a16.765,16.765,0,0,1,12.154,4.862h0c-.139-.35.069.35,0,0h0c-1.318-5.039-8.339-9.723-14.585-9.723-3.747,0-7.294,2.692-9.723,4.862,2.845-4.689,10.423-9.723,17.015-9.723a17.949,17.949,0,0,1,14.585,7.292L68.062,21.991,48.615.114,0,48.729,21.877,68.175,38.892,51.16A14.161,14.161,0,0,0,26.738,43.868Z"/>
  </g>
</svg>
