<svg xmlns="http://www.w3.org/2000/svg" viewBox="919 -936 130 93.983">
  <defs>
    <style>
      .cls-1 {
        fill: #f7f7f7;
      }
    </style>
  </defs>
  <g id="icon_2_" data-name="icon (2)" transform="translate(919 -1004.657)">
    <path id="Path_4094" data-name="Path 4094" class="cls-1" d="M130,80.311v39.352s-8.422,1.659-10.157,1.878-7.165,1.973-11.1-1.814c-6.075-5.822-27.658-27.287-27.658-27.287s-3.721-3.652-9.7-.5c-5.485,2.891-13.616,7.128-17.012,8.778A7.816,7.816,0,0,1,42.63,94.589c0-3.2,2-5.378,4.856-6.977C55.23,82.918,71.552,73.756,78.35,70.144c4.132-2.2,7.11-2.386,12.783,2.393,6.987,5.876,13.205,11.233,13.205,11.233A6.461,6.461,0,0,0,109.6,84.78C117.543,83.1,130,80.311,130,80.311ZM44.092,146.99a6.874,6.874,0,0,0-8.245-9.5,7.091,7.091,0,0,0-1.5-7,7.254,7.254,0,0,0-6.937-1.754,7.085,7.085,0,0,0-1.5-6.991c-2.836-2.909-7.743-2.785-10.966.288-3.206,3.076-5.26,8.65-2.4,11.931,2.857,3.264,6.139,1.278,8.641.708-.7,2.483-2.782,4.792-.213,8.041s6.139,1.279,8.644.714c-.7,2.473-2.693,5.014-.223,8.027,2.492,3.022,6.574,1.412,9.271.574-1.041,2.675-3.268,5.559-.406,8.79,2.857,3.255,9.459,1.749,12.684-1.328s3.525-7.952.7-10.871A7.323,7.323,0,0,0,44.092,146.99Zm58.845-20.473C79.623,103.2,90.589,114.174,78.043,101.6a8.173,8.173,0,0,0-8.74-1.573c-3.489,1.529-7.98,3.612-11.359,5.2-3.714,1.947-6.386,2.55-7.641,2.542a12.962,12.962,0,0,1-6.85-23.992c5.18-3.585,17.1-9.927,17.1-9.927s-3.633-4.6-11.59-4.6S24.391,80.138,24.391,80.138s-4.715,3.02-11.436.3L0,75.927v45.03s3.7,1.071,7.023,2.428a14.807,14.807,0,0,1,3.642-5.751c5.514-5.252,14.654-5.307,19.671-.141a12.412,12.412,0,0,1,3.1,5.515,12.562,12.562,0,0,1,5.324,3.245,12.387,12.387,0,0,1,3.109,5.5,12.665,12.665,0,0,1,8.612,9.281,12.744,12.744,0,0,1,5.554,3.329,13.1,13.1,0,0,1,3.437,11.352.02.02,0,0,1,.02.009c.049.065,1.868,2.092,3,3.236a5.715,5.715,0,0,0,8.082-8.082c-.08-.079-8.019-8.384-7.38-9.028s10.749,9.885,10.938,10.078a5.711,5.711,0,1,0,8.077-8.076c-.109-.1-.564-.54-.733-.714,0,0-10.029-8.934-9.265-9.7S85.446,144.3,85.466,144.3a5.64,5.64,0,0,0,8.125-7.8c-.039-.119-9.494-10-8.756-10.742s10.1,8.88,10.123,8.9a5.715,5.715,0,0,0,8.077-8.087C103.005,126.556,102.966,126.536,102.936,126.517Z"/>
  </g>
</svg>
