<svg xmlns="http://www.w3.org/2000/svg" viewBox="944 -1526 118.628 130">
  <defs>
    <style>
      .cls-1 {
        fill: #f7f7f7;
      }
    </style>
  </defs>
  <g id="ice-crystal" transform="translate(923.74 -1526)">
    <path id="Path_1857" data-name="Path 1857" class="cls-1" d="M131.935,68.8l-23.644,6.332-9.114-5.257V60.011l9.01-5.174L131.934,61.2a5.525,5.525,0,0,0,2.856-10.675l-13.019-3.488,12-6.89a5.525,5.525,0,1,0-5.5-9.583L116.246,37.47l3.487-13.024a5.524,5.524,0,1,0-10.67-2.862L102.726,45.23,93.66,50.436l-8.595-4.969V35.04l17.38-17.38a5.525,5.525,0,0,0-7.813-7.814l-9.567,9.566V5.525a5.525,5.525,0,0,0-11.051,0V19.344l-9.5-9.5A5.525,5.525,0,0,0,56.7,17.66L74.015,34.971V45.507l-8.529,4.921-9.066-5.2L50.087,21.585a5.524,5.524,0,1,0-10.671,2.862L42.9,37.468l-12.026-6.9a5.525,5.525,0,1,0-5.5,9.583l12,6.89L24.358,50.525A5.526,5.526,0,1,0,27.216,61.2l23.751-6.365,9,5.167.009,9.875-9.117,5.267L27.216,68.8a5.524,5.524,0,1,0-2.858,10.672L37.33,82.953,25.363,89.861a5.525,5.525,0,0,0,2.767,10.308,5.434,5.434,0,0,0,2.758-.743l12.027-6.941-3.5,13.071a5.526,5.526,0,0,0,3.908,6.769,5.461,5.461,0,0,0,1.432.191,5.528,5.528,0,0,0,5.331-4.1L56.45,84.672,65.5,79.449l8.513,4.912V95.033L56.7,112.344a5.525,5.525,0,0,0,7.814,7.813l9.5-9.5v13.814a5.526,5.526,0,0,0,11.051,0V110.591l9.567,9.566a5.525,5.525,0,0,0,7.813-7.813l-17.38-17.38V84.4l8.586-4.955,9.049,5.222,6.364,23.743a5.523,5.523,0,1,0,10.67-2.858l-3.5-13.071,12.032,6.941a5.44,5.44,0,0,0,2.758.743,5.525,5.525,0,0,0,2.767-10.308L121.82,82.953l12.971-3.479A5.524,5.524,0,0,0,131.935,68.8ZM88.126,69.877l-8.552,4.939-8.545-4.939-.01-9.884,8.555-4.936L88.126,60Z" transform="translate(0)"/>
  </g>
</svg>
