<svg xmlns="http://www.w3.org/2000/svg" xmlns:xlink="http://www.w3.org/1999/xlink" viewBox="1856 -1457 53 53">
  <defs>
    <style>
      .cls-1 {
        fill: #754cd9;
      }

      .cls-2 {
        fill: #fff;
      }

      .cls-3 {
        fill: none;
        stroke: #dce1f1;
        stroke-miterlimit: 10;
        stroke-dasharray: 5.008 5.008;
      }

      .cls-4 {
        filter: url(#Path_88);
      }
    </style>
    <filter id="Path_88" x="1856" y="-1457" width="53" height="53" filterUnits="userSpaceOnUse">
      <feOffset dy="3" input="SourceAlpha"/>
      <feGaussianBlur stdDeviation="3" result="blur"/>
      <feFlood flood-color="#7186c7" flood-opacity="0.4"/>
      <feComposite operator="in" in2="blur"/>
      <feComposite in="SourceGraphic"/>
    </filter>
  </defs>
  <g id="infochat" transform="translate(690 -2189)">
    <g class="cls-4" transform="matrix(1, 0, 0, 1, -690, 2189)">
      <path id="Path_88-2" data-name="Path 88" class="cls-1" d="M18,0c9.665,0,17,8.335,17,18A16.659,16.659,0,0,1,18,35C8.335,35,0,27.665,0,18A18.366,18.366,0,0,1,18,0Z" transform="translate(1865 -1451)"/>
    </g>
    <path id="Path_64" data-name="Path 64" class="cls-2" d="M8,16a9.372,9.372,0,0,1-5-2L0,15c-.145,0,.073.073,0,0s0,.145,0,0l1-3A9.561,9.561,0,0,1,0,8a8,8,0,1,1,8,8Z" transform="translate(1185 747)"/>
    <g id="Symbol_2_7" data-name="Symbol 2 – 7" transform="translate(490 344)">
      <circle id="Ellipse_10" data-name="Ellipse 10" class="cls-3" cx="22.05" cy="22.05" r="22.05" transform="translate(680 390)"/>
    </g>
  </g>
</svg>
