<svg xmlns="http://www.w3.org/2000/svg" viewBox="-659 -1771.4 71.441 125">
  <defs>
    <style>
      .cls-1 {
        fill: #f7f7f7;
      }
    </style>
  </defs>
  <g id="lightning-electric-energy" transform="translate(-864.617 -1771.4)">
    <path id="Path_1860" data-name="Path 1860" class="cls-1" d="M210.081,124.211l40.01-40.192a2.6,2.6,0,0,0-1.849-4.441h-3.191a2.6,2.6,0,0,1-2.045-4.22l21.216-26.751a2.6,2.6,0,0,0-2.045-4.22H251.511a2.6,2.6,0,0,1-2.084-4.168l27.1-36.051A2.6,2.6,0,0,0,274.447,0H231.584a2.59,2.59,0,0,0-2.331,1.446L208.3,43.839a2.606,2.606,0,0,0,2.331,3.764h9.664a2.606,2.606,0,0,1,2.331,3.764L208.3,80.359a2.606,2.606,0,0,0,2.331,3.764h9.1a2.6,2.6,0,0,1,2.344,3.738L205.9,121.241A2.6,2.6,0,0,0,210.081,124.211Z" transform="translate(0)"/>
  </g>
</svg>
