<svg xmlns="http://www.w3.org/2000/svg" viewBox="-2224 -1466.235 20 28.235">
  <defs>
    <style>
      .cls-1 {
        fill: #fff;
      }

      .cls-2 {
        fill: #f1f4fc;
      }
    </style>
  </defs>
  <g id="Group_132" data-name="Group 132" transform="translate(-2213 -1463.235)">
    <path id="Path_70" data-name="Path 70" class="cls-1" d="M10,28.235h0A.611.611,0,0,1,9.529,28C9.176,27.529,0,15.294,0,9.882a10,10,0,0,1,20,0C20,15.294,10.824,27.412,10.471,28A.611.611,0,0,1,10,28.235ZM10,1.176A8.787,8.787,0,0,0,1.176,9.882C1.176,14.235,8.118,24,10,26.588c1.882-2.471,8.824-12.235,8.824-16.706A8.787,8.787,0,0,0,10,1.176Z" transform="translate(-11 -3)"/>
    <circle id="Ellipse_12" data-name="Ellipse 12" class="cls-2" cx="3.529" cy="3.529" r="3.529" transform="translate(-4.529 2.765)"/>
  </g>
</svg>
