<svg xmlns="http://www.w3.org/2000/svg" xmlns:xlink="http://www.w3.org/1999/xlink" viewBox="762 -2178 139.165 39.102">
  <defs>
    <style>
      .cls-1 {
        fill: url(#linear-gradient);
      }

      .cls-2 {
        fill: url(#linear-gradient-2);
      }

      .cls-3 {
        fill: #313233;
      }
    </style>
    <linearGradient id="linear-gradient" x1="-0.001" y1="0.499" x2="0.999" y2="0.499" gradientUnits="objectBoundingBox">
      <stop offset="0" stop-color="#00b782"/>
      <stop offset="1" stop-color="#00afb7"/>
    </linearGradient>
    <linearGradient id="linear-gradient-2" x1="0" y1="0.5" x2="1" y2="0.5" xlink:href="#linear-gradient"/>
  </defs>
  <g id="logo" transform="translate(762 -2178.114)">
    <g id="Group_127" data-name="Group 127">
      <path id="Path_88" data-name="Path 88" class="cls-1" d="M57.295,38.316l-7,7a5.848,5.848,0,0,0,5,3c1.542,0,3-.108,4-1a6.647,6.647,0,0,1-6,3,9.769,9.769,0,0,1-6-2h0c.086.23.971.741,1,1,.485,1.814,2.516,3,5,3,1.542,0,3-.108,4-1a6.647,6.647,0,0,1-6,3,7.344,7.344,0,0,1-6-3l-7,7,9,8,19-19Z" transform="translate(-27.295 -27.202)"/>
      <path id="Path_89" data-name="Path 89" class="cls-2" d="M11,18.114a6.6,6.6,0,0,0-4,2,9.329,9.329,0,0,1,7-4,6.9,6.9,0,0,1,5,2h0c-.057-.144.029.144,0,0h0c-.542-2.073-3.431-4-6-4a6.6,6.6,0,0,0-4,2,9.329,9.329,0,0,1,7-4,7.384,7.384,0,0,1,6,3l6-6-8-9-20,20,9,8,7-7A5.826,5.826,0,0,0,11,18.114Z"/>
    </g>
    <path id="Path_90" data-name="Path 90" class="cls-3" d="M174.609,56.313v-7h-10v7h-4v-17h4v7h10v-7h4v17Z" transform="translate(-114.609 -28.199)"/>
    <path id="Path_91" data-name="Path 91" class="cls-3" d="M246.984,68.205v-1c-.086.086-.572-.288-1,0-.8.547-1.688,2-4,2-2.113,0-3.286-1.424-4-2-.228-.2-.715-.28-1-1-.285-.633,0-1.7,0-3v-7h3v6a7.051,7.051,0,0,0,1,3,2.93,2.93,0,0,0,2,1,3.7,3.7,0,0,0,1,0c.285,0,1.2-.683,2-1a2.857,2.857,0,0,0,2-3v-6h3v12Z" transform="translate(-168.984 -40.092)"/>
    <path id="Path_92" data-name="Path 92" class="cls-3" d="M285.35,67.28v-6a3.93,3.93,0,0,0-1-3c-.428-.4-.63,0-2,0-1.342,0-2.458-.468-3,1-.114.345-1,1.28-1,2v6h-4v-12h4v2c.428-.432.743-.77,1-1a10.312,10.312,0,0,1,5-1c2.369,0,3.343.28,4,1a7.71,7.71,0,0,1,1,2c.371.95,0,2.021,0,3v6Z" transform="translate(-196.35 -39.166)"/>
    <path id="Path_93" data-name="Path 93" class="cls-3" d="M339.435,60.159c-.228,0-.8.029-1,0-.371-.029-2.4.67-3-1a5.881,5.881,0,0,1,0-2v-7h-2v-2h2v-3h4v3h3v2h-3v6c0,.547-.171.77,0,1,.228.317,1.229,0,2,0,.371,0,.629.029,1,0v3A26.068,26.068,0,0,1,339.435,60.159Z" transform="translate(-238.435 -32.045)"/>
    <path id="Path_94" data-name="Path 94" class="cls-3" d="M382.658,64.852c-.228.374-.229.4-1,1a11.156,11.156,0,0,1-6,2,9.025,9.025,0,0,1-4-1,11.464,11.464,0,0,1-2-1,3.922,3.922,0,0,1-1-1,7.323,7.323,0,0,1-1-4,6.023,6.023,0,0,1,1-3c.942-1.5,2.746-3.029,7-3,2.6,0,5.43.726,7,3a4.921,4.921,0,0,1,1,3A8.265,8.265,0,0,1,382.658,64.852Zm-3-6a4.363,4.363,0,0,0-4-2c-1.513.086-2.543,1.568-3,2a2.008,2.008,0,0,0-1,2c0,1.526.573,3.482,2,4a11.071,11.071,0,0,0,2,0,11.173,11.173,0,0,0,2,0c2.141-.749,2-3.28,2-4C379.629,60.506,380.143,59.629,379.658,58.852Z" transform="translate(-262.658 -38.738)"/>
    <path id="Path_95" data-name="Path 95" class="cls-3" d="M445.673,67.28v-6a4.043,4.043,0,0,0-1-3c-.428-.4-.63,0-2,0-1.342,0-3.458-.468-4,1a11.471,11.471,0,0,0,0,2v6h-4v-12h4v2c.428-.432.743-.77,1-1a6.187,6.187,0,0,1,4-1c2.369,0,4.343.28,5,1a7.708,7.708,0,0,1,1,2c.371.95,0,2.021,0,3v6Z" transform="translate(-310.673 -39.166)"/>
    <g id="Group_128" data-name="Group 128" transform="translate(80.677 30.171)">
      <path id="Path_96" data-name="Path 96" class="cls-3" d="M290.924,112.743a2.2,2.2,0,0,1-2,1c-.2.029-.458,0-1,0a12.721,12.721,0,0,1-3,0c-.2-.058-.572.2-1,0-.457-.2-.857-.914-1-1-.457-.345.114-.8,0-1h1c.057.086-.057-.058,0,0,.171.173.4.77,1,1a7.287,7.287,0,0,0,3,0c.228,0,1.144.633,2,0a4.361,4.361,0,0,0,1-2c0-.518-.543-.827-1-1-.628-.288-2.315.058-3,0a4.57,4.57,0,0,1-3-1c-.6-.547-1-.683-1-1,0-1.238,1.629-1.8,2-2,.514-.288.6-1,2-1a8.532,8.532,0,0,1,4,1c.143.086-.143-.115,0,0,.285.23.914.914,1,1h-1c-.057-.058-.772.173-1,0a5.532,5.532,0,0,0-3-1c-.885,0-.686-.115-1,0-.742.288-1,1.626-1,2,0,.173-.086-.173,0,0,.314.489.486.942,1,1,.971.115,2.029-.115,3,0,1.342.173,1.572.482,2,1,.428.547,1,.741,1,1A4.485,4.485,0,0,1,290.924,112.743Z" transform="translate(-282.6 -104.8)"/>
      <path id="Path_97" data-name="Path 97" class="cls-3" d="M319.575,117.65a4.415,4.415,0,0,0,1,2c.285.288.972,0,2,0,.714,0,1.515.518,2,0,.171-.173-.114-.8,0-1h1c-.086.173.143.827,0,1a3.434,3.434,0,0,1-1,1,7.288,7.288,0,0,1-2,0c-1.941,0-3.971-.841-4-3a1.872,1.872,0,0,1,0-1c.6-1.583,2.515-1.914,3-2,.143-.029.657,0,1,0a3.243,3.243,0,0,1,3,1c.171.23-.114,1.194,0,2,.029.173,0-.144,0,0Zm4-2c-.086-.058-.686.086-1,0-.171-.058.4,0,0,0-.914,0-2.486.194-3,1-.086.144.114-.288,0,0h5C324.318,115.9,323.889,115.852,323.575,115.65Z" transform="translate(-308.251 -111.707)"/>
      <path id="Path_98" data-name="Path 98" class="cls-3" d="M352.868,115.579c-.2,0-1.6-.094-2,1a3.906,3.906,0,0,0,0,1v3h-1v-6h1v1c.086-.086-.2-.885,0-1,.314-.2,1.058,0,2,0,.343,0,.857-.029,1,0v1A5.631,5.631,0,0,0,352.868,115.579Z" transform="translate(-330.544 -111.636)"/>
      <path id="Path_99" data-name="Path 99" class="cls-3" d="M368.157,121.006h-1l-3-6h1l3,5,2-5h1Z" transform="translate(-340.833 -112.063)"/>
      <path id="Path_100" data-name="Path 100" class="cls-3" d="M393.092,108.594v-1h1v1Zm0,7v-6h2v6Z" transform="translate(-361.769 -106.651)"/>
      <path id="Path_101" data-name="Path 101" class="cls-3" d="M409.88,119.508a3.823,3.823,0,0,1-1,1,7.287,7.287,0,0,1-2,0c-1.17,0-2.229-.05-3-1a4.091,4.091,0,0,1-1-2,4.417,4.417,0,0,1,1-2c.057-.086-.2.173,0,0a4.135,4.135,0,0,1,3-1c.314,0,1.086-.6,2,0a10.562,10.562,0,0,1,1,1,10.984,10.984,0,0,1,1,1h-2c-.171-.259.114-.914,0-1-.714-.691-1.743,0-2,0-.285,0-1.286-.489-2,0a2.478,2.478,0,0,0-1,2c0,.173.743.539,1,1,.314.489.6,1,2,1,.228,0,1.258.6,2,0,.2-.173-.143-.77,0-1h2C410.766,118.652,409.966,119.393,409.88,119.508Z" transform="translate(-368.557 -111.565)"/>
      <path id="Path_102" data-name="Path 102" class="cls-3" d="M433.887,117.65c.086.576-.428,1.6,0,2,.286.288.972,0,2,0,.714,0,1.515.518,2,0a10.985,10.985,0,0,0,1-1h1c-.086.173-.857.827-1,1a3.432,3.432,0,0,1-1,1,7.287,7.287,0,0,1-2,0c-1.941,0-3.971-.841-4-3,0-.173.829-.511,1-1,.6-1.583,1.515-1.914,2-2,.143-.029.657,0,1,0a3.243,3.243,0,0,1,3,1,5.315,5.315,0,0,1,1,2c.029.173,0-.144,0,0Zm4-2c-.086-.058-.686.086-1,0a5.631,5.631,0,0,0-1,0,2.021,2.021,0,0,0-2,1c-.086.144.114-.288,0,0h4C437.63,115.9,438.2,115.852,437.887,115.65Z" transform="translate(-389.564 -111.707)"/>
      <path id="Path_103" data-name="Path 103" class="cls-3" d="M468.322,119.436c-.714,1.3-2.971,1-3,1-.4,0-2.63.267-4-1l1-1c.057.058-.285.827,0,1,.942.489,2.715,0,3,0a1.058,1.058,0,0,0,1,0c.257-.144,1-.683,1-1,0-.173-.686.144-1,0a7.45,7.45,0,0,0-3-1c-.514-.058-.543.317-1,0-.371-.259-1-.539-1-1a2.542,2.542,0,0,1,1-2,2.959,2.959,0,0,1,2,0c.942,0,2.172-.432,3,0a5.456,5.456,0,0,1,1,1h-1c-.971-.691-2.657,0-3,0-.856,0-.686-.23-1,0a5.479,5.479,0,0,0-1,1c0,.115.772-.115,1,0,.428.259,1.744-.115,3,0,.914.086.629.741,1,1,.457.317,1,.453,1,1C468.294,118.58,468.494,119.12,468.322,119.436Z" transform="translate(-409.999 -111.494)"/>
    </g>
  </g>
</svg>
