<svg xmlns="http://www.w3.org/2000/svg" viewBox="-2421.048 -789 140.361 121.651">
  <defs>
    <style>
      .cls-1 {
        opacity: 0.5;
      }

      .cls-2 {
        fill: #f7f7f7;
      }
    </style>
  </defs>
  <g id="theatre-masks" class="cls-1" transform="translate(-2421.048 -820.538)">
    <path id="Path_144" data-name="Path 144" class="cls-2" d="M276.833,161.391a3.559,3.559,0,0,0-4.633-2.483c-8.27,2.905-21.029,4.775-35.38,4.775-3.489,0-6.851-.133-10.112-.343a76.508,76.508,0,0,1-7.82,20.768c.167-.007.327-.034.5-.034,4.459,0,8.073-.372,8.073,2.632s-3.614,8.247-8.073,8.247a9.775,9.775,0,0,1-6.36-2.124,47.285,47.285,0,0,1-15.4,12.782c6.465,21.761,21.58,37.026,39.193,37.026,23.5,0,42.547-27.166,42.547-60.677A83.665,83.665,0,0,0,276.833,161.391Zm-23.057,63.528a.95.95,0,0,1-1.535.509c-3.314-2.785-8.953-4.635-15.42-4.635s-12.106,1.85-15.42,4.635a.95.95,0,0,1-1.535-.509,15.767,15.767,0,0,1-.443-3.623,17.4,17.4,0,0,1,34.8,0A15.816,15.816,0,0,1,253.776,224.919Zm.48-29.966c-4.459,0-8.074-5.243-8.074-8.247s3.614-2.632,8.074-2.632,8.073,2.436,8.073,5.439S258.715,194.953,254.255,194.953Z" transform="translate(-139.006 -89.447)"/>
    <path id="Path_145" data-name="Path 145" class="cls-2" d="M85.094,54.789A83.645,83.645,0,0,0,82.56,34.222a3.563,3.563,0,0,0-4.633-2.483c-8.27,2.905-21.029,4.774-35.38,4.774s-27.111-1.869-35.38-4.774a3.508,3.508,0,0,0-1.176-.2,3.564,3.564,0,0,0-3.457,2.684A83.647,83.647,0,0,0,0,54.789C0,88.3,19.048,115.466,42.547,115.466S85.094,88.3,85.094,54.789ZM17.038,62.331c0-3,3.614-5.439,8.074-5.439s8.073,5.243,8.073,8.247-3.614,2.632-8.073,2.632S17.038,65.335,17.038,62.331ZM42.547,104a17.4,17.4,0,0,1-17.4-17.4,15.789,15.789,0,0,1,.443-3.624.95.95,0,0,1,1.535-.509c3.314,2.785,8.953,4.635,15.42,4.635s12.106-1.85,15.42-4.635a.95.95,0,0,1,1.535.509,15.789,15.789,0,0,1,.443,3.624A17.4,17.4,0,0,1,42.547,104Zm9.361-38.857c0-3,3.614-8.247,8.074-8.247s8.073,2.435,8.073,5.439-3.614,5.439-8.073,5.439S51.909,68.142,51.909,65.138Z"/>
  </g>
</svg>
