<svg xmlns="http://www.w3.org/2000/svg" viewBox="300 -1527 150 100">
  <defs>
    <style>
      .cls-1 {
        fill: #fbfbfb;
      }
    </style>
  </defs>
  <path id="Subtraction_1" data-name="Subtraction 1" class="cls-1" d="M1459,2632H1325a8.009,8.009,0,0,1-8-8v-84c0-.234.01-.471.031-.7l72.536,41.878a4.027,4.027,0,0,0,2.44.826h.058a4.033,4.033,0,0,0,2.438-.825l72.471-41.842c.019.228.027.452.027.667v84A8.009,8.009,0,0,1,1459,2632Zm-66.966-58.638h0l-70.377-40.632A7.934,7.934,0,0,1,1325,2532h134a7.934,7.934,0,0,1,3.38.747l-70.346,40.614Z" transform="translate(-1017 -4059.001)"/>
</svg>
