<svg xmlns="http://www.w3.org/2000/svg" viewBox="-2461 530 140 140.005">
  <defs>
    <style>
      .cls-1 {
        opacity: 0.5;
      }

      .cls-2 {
        fill: #f7f7f7;
      }
    </style>
  </defs>
  <g id="smartphone" class="cls-1" transform="translate(-2461.001 530)">
    <path id="Path_1852" data-name="Path 1852" class="cls-2" d="M58.888,4.96a2.333,2.333,0,0,0-3.3,3.3,22.387,22.387,0,0,1,0,31.622,2.333,2.333,0,1,0,3.3,3.3A27.057,27.057,0,0,0,58.888,4.96Z" transform="translate(73.209 5.701)"/>
    <path id="Path_1853" data-name="Path 1853" class="cls-2" d="M54.677,7.236a2.333,2.333,0,0,0-3.3,3.3,15.326,15.326,0,0,1,0,21.647,2.333,2.333,0,1,0,3.3,3.3,19.99,19.99,0,0,0,0-28.246Z" transform="translate(67.594 8.736)"/>
    <path id="Path_1854" data-name="Path 1854" class="cls-2" d="M11.2,8.259a2.333,2.333,0,0,0-3.3-3.3,27.057,27.057,0,0,0,0,38.221,2.333,2.333,0,0,0,3.3-3.3A22.383,22.383,0,0,1,11.2,8.259Z" transform="translate(0 5.701)"/>
    <path id="Path_1855" data-name="Path 1855" class="cls-2" d="M14.237,6.96a2.331,2.331,0,0,0-3.3,0,19.99,19.99,0,0,0,0,28.246,2.333,2.333,0,1,0,3.3-3.3,15.326,15.326,0,0,1,0-21.647A2.335,2.335,0,0,0,14.237,6.96Z" transform="translate(6.792 8.368)"/>
    <circle id="Ellipse_32" data-name="Ellipse 32" class="cls-2" cx="4.667" cy="4.667" r="4.667" transform="translate(65.334 119.004)"/>
    <path id="Path_1856" data-name="Path 1856" class="cls-2" d="M82.057,0H23.279A10.292,10.292,0,0,0,13,10.279V129.724A10.292,10.292,0,0,0,23.279,140H82.055a10.292,10.292,0,0,0,10.281-10.279V10.279A10.292,10.292,0,0,0,82.057,0ZM59.668,7H62a2.333,2.333,0,1,1,0,4.667H59.668a2.333,2.333,0,1,1,0-4.667ZM43.334,7h9.334a2.333,2.333,0,1,1,0,4.667H43.334a2.333,2.333,0,1,1,0-4.667Zm9.334,126A9.334,9.334,0,1,1,62,123.671,9.343,9.343,0,0,1,52.668,133Zm35-25.668h-70V18.667h70Z" transform="translate(17.333)"/>
  </g>
</svg>
