<svg xmlns="http://www.w3.org/2000/svg" viewBox="52 1184 8 12">
  <defs>
    <style>
      .cls-1 {
        fill: #7186c7;
      }
    </style>
  </defs>
  <g id="Group_134" data-name="Group 134" transform="translate(52 1184)">
    <path id="Path_83" data-name="Path 83" class="cls-1" d="M7.7,12c-.1,0-.1,0-.2-.1L5.4,10.2,3.3,11.9c0,.1-.1.1-.2.1s-.1-.1-.1-.2V1.5a.2.2,0,0,1,.4,0v9.7L5.2,9.7a.187.187,0,0,1,.3,0l1.8,1.5V1.5a.215.215,0,0,1,.2-.2c.4,0,.5.1.5.2V11.7a.349.349,0,0,1-.1.2C7.8,12,7.8,12,7.7,12Z"/>
    <path id="Path_84" data-name="Path 84" class="cls-1" d="M3,5.5H.2A.215.215,0,0,1,0,5.3V1.5A1.378,1.378,0,0,1,1.3,0h5A1.738,1.738,0,0,1,7.9,1.7c0,.2-.1.3-.2.3a.265.265,0,0,1-.3-.3A1.284,1.284,0,0,0,6.3.5h-5C.7.5.5,1,.5,1.5V5H3a.215.215,0,0,1,.2.2C3.2,5.3,3.1,5.5,3,5.5Z"/>
    <path id="Path_85" data-name="Path 85" class="cls-1" d="M3.1,1.8c-.1,0-.2-.1-.2-.3a1,1,0,0,0-1-1A.215.215,0,0,1,1.7.3c-.1-.2,0-.3.1-.3A1.538,1.538,0,0,1,3.3,1.5C3.4,1.7,3.2,1.8,3.1,1.8Z"/>
  </g>
</svg>
