<svg xmlns="http://www.w3.org/2000/svg" viewBox="280 -1656 120 101.573">
  <defs>
    <style>
      .cls-1 {
        fill: #f7f7f7;
      }
    </style>
  </defs>
  <g id="charity" transform="translate(280 -1687.93)">
    <g id="Group_156" data-name="Group 156" transform="translate(28.688 31.93)">
      <g id="Group_155" data-name="Group 155" transform="translate(0 0)">
        <path id="Path_140" data-name="Path 140" class="cls-1" d="M156.637,36.415a16.623,16.623,0,0,0-11.488-4.485,18.321,18.321,0,0,0-12.907,5.363L130.73,38.8l-1.511-1.512a18.327,18.327,0,0,0-12.907-5.363,16.624,16.624,0,0,0-11.488,4.485,17.157,17.157,0,0,0-.379,24.632L130.73,87.333l26.286-26.286A17.157,17.157,0,0,0,156.637,36.415Z" transform="translate(-99.418 -31.93)"/>
      </g>
    </g>
    <g id="Group_158" data-name="Group 158" transform="translate(0 36.563)">
      <g id="Group_157" data-name="Group 157">
        <path id="Path_141" data-name="Path 141" class="cls-1" d="M50.786,144.926l-.02-26.045c0-12.578-6.443-19.953-14.977-22.73-2.382-.721-4.516-2.615-6.5-4.6-3.606-3.755-7.461-8.891-12.454-8.828l0-.019a6.575,6.575,0,0,0-4.67,2.022c-3.312,3.312-1.974,8.372.882,11.228l9.278,9.277a4.616,4.616,0,0,1,0,6.529L9.778,99.218a14.455,14.455,0,0,1-4.065-8.083,11.327,11.327,0,0,1,10-12.939L13.841,70.63C13.7,42.551,0,45.981,0,52.586v49.294a11.481,11.481,0,0,0,3.341,8.125c22.936,23.148,19.744,15.691,19.744,34.92Z" transform="translate(0 -47.986)"/>
      </g>
    </g>
    <g id="Group_160" data-name="Group 160" transform="translate(69.214 36.564)">
      <g id="Group_159" data-name="Group 159">
        <path id="Path_142" data-name="Path 142" class="cls-1" d="M290.644,52.588c0-6.605-13.7-10.036-13.84,18.044L274.931,78.2a11.327,11.327,0,0,1,10,12.939,14.452,14.452,0,0,1-4.065,8.083l-12.542,12.542a4.616,4.616,0,0,1,0-6.529l9.278-9.277c2.856-2.856,4.194-7.916.882-11.228a6.576,6.576,0,0,0-4.67-2.022l0,.019c-4.993-.064-8.848,5.072-12.454,8.828-1.985,1.986-4.119,3.879-6.5,4.6-8.534,2.777-14.977,10.152-14.977,22.73l-.02,26.045h27.7c0-19.229-3.192-11.772,19.744-34.92a11.48,11.48,0,0,0,3.341-8.125Z" transform="translate(-239.859 -47.987)"/>
      </g>
    </g>
  </g>
</svg>
