<svg xmlns="http://www.w3.org/2000/svg" viewBox="886 -1090 119.602 120">
  <defs>
    <style>
      .cls-1 {
        opacity: 0.5;
      }

      .cls-2 {
        fill: #f7f7f7;
      }
    </style>
  </defs>
  <g id="question-speech-bubble" class="cls-1" transform="translate(888 -1116.617)">
    <g id="Group_136" data-name="Group 136" transform="translate(-2 26.717)">
      <g id="Group_135" data-name="Group 135" transform="translate(0 -0.1)">
        <g id="Group_134" data-name="Group 134" transform="translate(0 0)">
          <path id="Path_107" data-name="Path 107" class="cls-2" d="M114.751,89.625c-1.125-2.25-2.624-2.624-4.851-3.374-9.725-3.749-18.325-5.6-28.026-8.975C81.125,76.9,78.5,75.4,78.5,70.55c0-1.875-.375-3-2.624-3-.75,0-.375,0-.75-1.5a28.638,28.638,0,0,1-.375-7.475c0-.75.75-1.125,1.125-1.5A22.778,22.778,0,0,0,80,44s.75.375,1.125-1.5c.75-1.875.75-2.624,1.5-4.851.75-1.875.75-5.6-1.5-5.6-1.5.375-1.125,0-1.125-1.5V17.873a11.245,11.245,0,0,0-5.226-8.6,65.2,65.2,0,0,1-5.6-3.749c-1.5-1.125-1.125-2.25,0-3.749.75-.75,1.875-1.5,2.25-1.875h-.75A90.82,90.82,0,0,0,60.2,1.775c-5.6,1.5-10.849,3-15.325,6.725-3,2.25-5.6,5.6-5.6,9.35v12.7c0,1.125,0,1.875-1.5,1.5-2.624-.375-1.125,4.851-1.125,5.226a47.545,47.545,0,0,0,1.875,5.6c.375,1.5,1.125,1.5,1.125,1.5.75,3.374,1.875,9.35,4.851,13.076a2.864,2.864,0,0,1,.75,1.875c-.375,2.25-.375,5.226-.75,7.475,0,.375-.375,1.5-1.125,1.5a2.241,2.241,0,0,0-2.25,3,8.793,8.793,0,0,1-3.374,6.725C32.9,80.275,16.075,85.126,10.475,87c-3.749,1.125-4.851,2.25-5.6,3.749L0,103.075c21.3,0,32.15,13.076,54.2,16.825h.375L48.6,109.425l11.576-32.15-3.726-7.85h7.475l-3.749,7.85,11.576,32.15-7.1,9.725h.75c22.8-3.749,38.5-16.825,54.2-16.825Zm-13.825,6.35h-17.2v-3h17.2v3Z" transform="translate(0 0.1)"/>
        </g>
      </g>
    </g>
  </g>
</svg>
