<svg xmlns="http://www.w3.org/2000/svg" xmlns:xlink="http://www.w3.org/1999/xlink" viewBox="1457.389 -1256.041 200.563 200.563">
  <defs>
    <style>
      .cls-1 {
        fill: url(#linear-gradient);
      }

      .cls-2, .cls-3 {
        fill: #fff;
      }

      .cls-2 {
        font-size: 11px;
        font-family: GothamPro-Bold, Gotham Pro;
        font-weight: 700;
      }

      .cls-4 {
        filter: url(#Path_110);
      }
    </style>
    <linearGradient id="linear-gradient" x1="0.5" x2="0.5" y2="1" gradientUnits="objectBoundingBox">
      <stop offset="0" stop-color="#00b782"/>
      <stop offset="1" stop-color="#00afb7"/>
    </linearGradient>
    <filter id="Path_110" x="1457.389" y="-1256.041" width="200.563" height="200.563" filterUnits="userSpaceOnUse">
      <feOffset dy="4" input="SourceAlpha"/>
      <feGaussianBlur stdDeviation="7.5" result="blur"/>
      <feFlood flood-color="#0f5699" flood-opacity="0.4"/>
      <feComposite operator="in" in2="blur"/>
      <feComposite in="SourceGraphic"/>
    </filter>
  </defs>
  <g id="_1" data-name="1" transform="translate(638 -2154)">
    <g id="Symbol_3_1" data-name="Symbol 3 – 1">
      <g class="cls-4" transform="matrix(1, 0, 0, 1, -638, 2154)">
        <path id="Path_110-2" data-name="Path 110" class="cls-1" d="M0,0H110V110H0Z" transform="translate(1479.89 -1159.76) rotate(-45)"/>
      </g>
    </g>
    <text id="OUR_TEAM" data-name="OUR TEAM" class="cls-2" transform="translate(920 1015)"><tspan x="-30.827" y="0">OUR TEAM</tspan></text>
    <g id="Group_135" data-name="Group 135" transform="translate(900.9 952)">
      <path id="Union_3" data-name="Union 3" class="cls-3" d="M-31.6,1193.1a.431.431,0,0,1-.4-.4v-9.8l-2.5-3.9c-.1-.1-.1-.1-.1-.2v-7.1a3.634,3.634,0,0,1,2.5-3.4l1.3-.4c.1,0,.2.1.3.2l2.4,6.7a.417.417,0,0,0,.8,0l2.4-6.7c0-.2.2-.3.4-.2l1.2.4a4.2,4.2,0,0,1,2.6,3.4v7.1c0,.1-.1.1-.1.2l-2.5,3.9v9.8a.431.431,0,0,1-.4.4Zm15.1-4.2a.9.9,0,0,1-.9-.9v-6.4l-1.6-2.4a.763.763,0,0,1-.2-.5v-4.8a3.035,3.035,0,0,1,2.1-3l.8-.2a.784.784,0,0,1,.8.1l1.6,1.2,1.6-1.2a1.064,1.064,0,0,1,.8-.1l.8.2a3.251,3.251,0,0,1,2.2,3v4.8c0,.2-.1.3-.2.5l-1.6,2.4v6.4a.9.9,0,0,1-.9.9Zm-27.7,0a.9.9,0,0,1-.9-.9v-6.4l-1.6-2.4a.763.763,0,0,1-.2-.5v-4.8a3.035,3.035,0,0,1,2.1-3l.8-.2a.784.784,0,0,1,.8.1l1.6,1.2,1.6-1.2a1.061,1.061,0,0,1,.8-.1l.8.2a3.035,3.035,0,0,1,2.1,3v4.8c0,.2-.1.3-.2.5l-1.6,2.4v6.4a.9.9,0,0,1-.9.9Zm16.2-15.4-.5-1.5.3-2.3-.6-.9a.472.472,0,0,1,.1-.6.756.756,0,0,1,.4-.2h1.1a.4.4,0,0,1,.4.2.483.483,0,0,1-.1.6l-.6.9.3,2.3-.5,1.5c0,.05-.05.075-.112.075A.275.275,0,0,1-28,1173.5Zm-16.8-6.8a3.119,3.119,0,0,1,3.2-3,3.115,3.115,0,0,1,3.1,3.1,3.116,3.116,0,0,1-3.1,3.1A3.223,3.223,0,0,1-44.8,1166.7Zm27.7,0a3.115,3.115,0,0,1,3.1-3.1,3.116,3.116,0,0,1,3.1,3.1,3.116,3.116,0,0,1-3.1,3.1A3.116,3.116,0,0,1-17.1,1166.7Zm-14.7-4.4a3.972,3.972,0,0,1,4-4.1,4.118,4.118,0,0,1,4.1,4.1,4.033,4.033,0,0,1-4,4.1A4.118,4.118,0,0,1-31.8,1162.3Zm-9.8-1a1.056,1.056,0,0,1-.2-1.4,17.569,17.569,0,0,1,14-6.9,17.572,17.572,0,0,1,14,6.9,1.075,1.075,0,0,1-.2,1.4,1.421,1.421,0,0,1-.6.2.91.91,0,0,1-.8-.4,15.487,15.487,0,0,0-12.4-6.1,15.49,15.49,0,0,0-12.4,6.1.861.861,0,0,1-.762.4A1.077,1.077,0,0,1-41.6,1161.3Z" transform="translate(47 -1153)"/>
    </g>
  </g>
</svg>
