<svg xmlns="http://www.w3.org/2000/svg" xmlns:xlink="http://www.w3.org/1999/xlink" viewBox="236.889 -1245.541 179.563 179.563">
  <defs>
    <style>
      .cls-1 {
        fill: #fff;
      }

      .cls-2 {
        fill: #313233;
        font-size: 11px;
        font-family: GothamPro-Bold, Gotham Pro;
        font-weight: 700;
      }

      .cls-3 {
        fill: url(#linear-gradient);
      }

      .cls-4 {
        filter: url(#Path_110);
      }
    </style>
    <filter id="Path_110" x="236.889" y="-1245.541" width="179.563" height="179.563" filterUnits="userSpaceOnUse">
      <feOffset dy="4" input="SourceAlpha"/>
      <feGaussianBlur stdDeviation="4" result="blur"/>
      <feFlood flood-color="#0f5699" flood-opacity="0.102"/>
      <feComposite operator="in" in2="blur"/>
      <feComposite in="SourceGraphic"/>
    </filter>
    <linearGradient id="linear-gradient" x1="0.5" x2="0.5" y2="1" gradientUnits="objectBoundingBox">
      <stop offset="0" stop-color="#00b782"/>
      <stop offset="1" stop-color="#00afb7"/>
    </linearGradient>
  </defs>
  <g id="_3" data-name="3" transform="translate(-593 -2154)">
    <g class="cls-4" transform="matrix(1, 0, 0, 1, 593, 2154)">
      <path id="Path_110-2" data-name="Path 110" class="cls-1" d="M0,0H110V110H0Z" transform="translate(248.89 -1159.76) rotate(-45)"/>
    </g>
    <text id="OUR_PARTNERS" data-name="OUR PARTNERS" class="cls-2" transform="translate(920 1015)"><tspan x="-45.16" y="0">OUR PARTNERS</tspan></text>
    <g id="Group_136" data-name="Group 136" transform="translate(899 959.014)">
      <path id="Path_119" data-name="Path 119" class="cls-3" d="M45,4.066v13.59s-2.929.57-3.5.651-2.441.651-3.825-.651c-2.116-2.034-9.6-9.439-9.6-9.439a2.748,2.748,0,0,0-3.336-.163c-1.872.976-4.72,2.441-5.859,3.011A2.715,2.715,0,0,1,14.81,8.949a2.837,2.837,0,0,1,1.709-2.441c2.685-1.627,8.3-4.8,10.66-6.022,1.465-.732,2.441-.814,4.394.814,2.441,2.034,4.557,3.906,4.557,3.906a2.248,2.248,0,0,0,1.79.325C40.687,4.961,45,4.066,45,4.066ZM15.3,27.095a2.521,2.521,0,0,0-.488-2.685,2.433,2.433,0,0,0-2.441-.57,2.6,2.6,0,0,0-.488-2.441,2.433,2.433,0,0,0-2.441-.57,2.6,2.6,0,0,0-.488-2.441,2.78,2.78,0,0,0-3.825.081c-1.139,1.058-1.79,3.011-.814,4.15,1.058,1.139,2.2.407,3.011.244-.244.9-.976,1.627-.081,2.767s2.116.407,3.011.244c-.244.9-.9,1.709-.081,2.767.9,1.058,2.278.488,3.174.163-.325.9-1.139,1.953-.163,3.011.976,1.139,3.255.57,4.394-.488a2.619,2.619,0,0,0,.244-3.743A2.76,2.76,0,0,0,15.3,27.095Zm20.344-7.08L27.016,11.39a2.841,2.841,0,0,0-3.011-.57c-1.221.57-2.767,1.221-3.906,1.79a6.993,6.993,0,0,1-2.685.9A4.463,4.463,0,0,1,12.939,9.03a4.628,4.628,0,0,1,2.116-3.825c1.79-1.221,5.94-3.418,5.94-3.418A5.025,5.025,0,0,0,17.007.16C14.241.16,8.463,3.9,8.463,3.9a4.3,4.3,0,0,1-3.987.163L0,2.52V18.144s1.3.407,2.441.814A3.963,3.963,0,0,1,3.743,17a5.022,5.022,0,0,1,6.835-.081,4.82,4.82,0,0,1,1.058,1.872,4.48,4.48,0,0,1,1.872,1.139,4.82,4.82,0,0,1,1.058,1.872,4.48,4.48,0,0,1,1.872,1.139,4.149,4.149,0,0,1,1.139,2.116A4.76,4.76,0,0,1,19.53,26.2a4.659,4.659,0,0,1,1.221,3.906h0s.651.732,1.058,1.139a1.956,1.956,0,0,0,2.767-2.767s-2.767-2.929-2.523-3.092c.244-.244,3.743,3.418,3.825,3.5a1.956,1.956,0,1,0,2.767-2.767l-.244-.244s-3.5-3.092-3.174-3.336c.244-.244,4.557,3.743,4.557,3.743a1.844,1.844,0,0,0,2.685-.081,2,2,0,0,0,.081-2.685c0-.081-3.255-3.5-3.011-3.743s3.5,3.092,3.5,3.092a2.017,2.017,0,0,0,2.767,0,2.129,2.129,0,0,0-.163-2.848Z"/>
    </g>
  </g>
</svg>
