<svg xmlns="http://www.w3.org/2000/svg" viewBox="282 -1451 35.5 35.5">
  <defs>
    <style>
      .cls-1 {
        fill: #228cef;
      }

      .cls-2 {
        fill: #fff;
      }
    </style>
  </defs>
  <g id="Group_130" data-name="Group 130" transform="translate(282 -1451)">
    <circle id="Ellipse_25" data-name="Ellipse 25" class="cls-1" cx="17.75" cy="17.75" r="17.75" transform="translate(0 0)"/>
    <g id="Group_129" data-name="Group 129" transform="translate(9.58 9.576)">
      <path id="Path_106" data-name="Path 106" class="cls-2" d="M142.945,144.481c-.332.339-.686.657-1,1.011a1.97,1.97,0,0,1-1.7.642,7.123,7.123,0,0,1-2.708-.789,14.69,14.69,0,0,1-4.884-3.821,13.511,13.511,0,0,1-2.383-3.969,5.171,5.171,0,0,1-.4-2.213,1.84,1.84,0,0,1,.561-1.217c.376-.361.73-.73,1.107-1.1a1.051,1.051,0,0,1,1.579,0c.3.3.6.6.893.893s.583.575.863.863a1.046,1.046,0,0,1,0,1.616c-.361.369-.723.73-1.092,1.084a.221.221,0,0,0-.059.288,6.463,6.463,0,0,0,.989,1.579,11.216,11.216,0,0,0,2.767,2.508c.229.148.48.243.723.376a.217.217,0,0,0,.3-.059c.361-.376.73-.738,1.1-1.107a1.038,1.038,0,0,1,1.571,0c.6.59,1.18,1.173,1.771,1.771A1.082,1.082,0,0,1,142.945,144.481Zm-5.607-9.827.192-1.35a6.045,6.045,0,0,1,5.113,4.958l-1.35.236a4.72,4.72,0,0,0-3.954-3.844Zm7.5,3.608a8.674,8.674,0,0,0-7.333-7.112l.192-1.35a10.046,10.046,0,0,1,8.484,8.226Z" transform="translate(-129.855 -129.8)"/>
    </g>
  </g>
</svg>
