<svg xmlns="http://www.w3.org/2000/svg" viewBox="-2228 -1351.1 28 28">
  <defs>
    <style>
      .cls-1 {
        fill: #f1f4fc;
      }
    </style>
  </defs>
  <path id="phone" class="cls-1" d="M14,0A13.974,13.974,0,0,0,4.783,24.5a.577.577,0,1,0,.817-.817,12.817,12.817,0,1,1,8.4,3.15c-1.75,0-2.8-.35-3.15-.933-.467-.817.233-2.1.817-3.15l.35.117a3.407,3.407,0,0,0,1.05.233A2.682,2.682,0,0,0,15.4,21.583l.467-1.167a2.434,2.434,0,0,0-1.283-3.267l-1.75-.817c-.233-.117-.35-.467-.35-1.167a7.533,7.533,0,0,1,.7-2.917c.933-2.217,2.333-3.15,2.8-3.033l1.75.817A2.4,2.4,0,0,0,21,8.75l.467-1.167a2.576,2.576,0,0,0,0-1.867,2.524,2.524,0,0,0-1.283-1.4L18.433,3.5a3.452,3.452,0,0,0-1.167-.233c-2.45,0-5.6,3.033-7.583,7.467-2.333,5.133-2.1,10.15.467,11.317l.35.233c-.7,1.283-1.517,2.917-.7,4.2C10.383,27.533,11.783,28,14,28A14,14,0,0,0,14,0Z" transform="translate(-2228 -1351.1)"/>
</svg>
