<svg xmlns="http://www.w3.org/2000/svg" viewBox="2923 254 50 50">
  <defs>
    <style>
      .cls-1 {
        fill: #228cef;
      }
    </style>
  </defs>
  <g id="repair-tools" transform="translate(2911.977 242.057)">
    <path id="Path_5026" data-name="Path 5026" class="cls-1" d="M38.241,229.972,36.4,228.9a11.1,11.1,0,0,0,0-4.177l1.843-1.068a1.716,1.716,0,0,0,.625-2.34l-2.16-3.757a1.7,1.7,0,0,0-2.332-.627L32.535,218a11.612,11.612,0,0,0-3.61-2.088v-2.137a1.709,1.709,0,0,0-1.706-1.713H22.9a1.711,1.711,0,0,0-1.707,1.713v2.138A11.6,11.6,0,0,0,17.583,218l-1.841-1.066a1.7,1.7,0,0,0-2.33.627l-2.16,3.755a1.716,1.716,0,0,0,.624,2.339l1.843,1.069a11.218,11.218,0,0,0,0,4.179l-1.843,1.069a1.716,1.716,0,0,0-.624,2.339l2.159,3.755a1.716,1.716,0,0,0,1.038.8,1.7,1.7,0,0,0,1.295-.172l1.845-1.068a11.521,11.521,0,0,0,3.6,2.086v2.137a1.712,1.712,0,0,0,1.707,1.713h4.322a1.709,1.709,0,0,0,1.706-1.713v-2.137a11.523,11.523,0,0,0,3.607-2.086l1.843,1.068a1.7,1.7,0,0,0,2.33-.626l2.16-3.755A1.717,1.717,0,0,0,38.241,229.972ZM25.059,234.1a7.285,7.285,0,1,1,7.258-7.285A7.279,7.279,0,0,1,25.059,234.1Z" transform="translate(0 -179.62)"/>
    <path id="Path_5027" data-name="Path 5027" class="cls-1" d="M99.463,301.365a5.6,5.6,0,1,0,5.582,5.6A5.6,5.6,0,0,0,99.463,301.365Z" transform="translate(-74.403 -259.775)"/>
    <path id="Path_5028" data-name="Path 5028" class="cls-1" d="M139.959,42.969a7.1,7.1,0,0,0-6.361-2.19L115.044,20.727a7.154,7.154,0,0,0-1.7-6.525,7.038,7.038,0,0,0-5.558-2.249.681.681,0,0,0-.6.429.693.693,0,0,0,.131.729l1.956,2.113a.978.978,0,0,1-.051,1.381l-3.626,3.379a.972.972,0,0,1-1.375-.051l-1.954-2.113a.686.686,0,0,0-1.185.384,7.091,7.091,0,0,0,8.181,7.912L127.818,46.17a7.161,7.161,0,0,0,1.7,6.532,7.041,7.041,0,0,0,5.554,2.242.681.681,0,0,0,.6-.427.691.691,0,0,0-.134-.731l-1.953-2.111a.981.981,0,0,1,.051-1.383l3.624-3.377a.973.973,0,0,1,1.378.051l1.954,2.112a.687.687,0,0,0,.715.189.7.7,0,0,0,.472-.571A7.09,7.09,0,0,0,139.959,42.969Z" transform="translate(-80.816)"/>
  </g>
</svg>
