<svg xmlns="http://www.w3.org/2000/svg" viewBox="-3017 26 140 120.006">
  <defs>
    <style>
      .cls-1 {
        opacity: 0.5;
      }

      .cls-2 {
        fill: #f7f7f7;
      }
    </style>
  </defs>
  <g id="question-speech-bubble" class="cls-1" transform="translate(-3017 -5.617)">
    <path id="Path_140" data-name="Path 140" class="cls-2" d="M74.965,31.617c-35.919,0-65.035,26.864-65.035,60a55.925,55.925,0,0,0,6,25.2L.549,144.641a4.388,4.388,0,0,0,5,6.358l33.677-9.243a68.664,68.664,0,0,0,35.735,9.867c35.918,0,65.035-26.864,65.035-60S110.883,31.617,74.965,31.617Zm-.109,90.83a6.437,6.437,0,1,1,6.437-6.437A6.443,6.443,0,0,1,74.856,122.447ZM81.6,91.826c-.846.578-1.43,1-1.746,1.271v6.726a5,5,0,0,1-9.993,0V92.577c0-4.832,3.526-7.242,6.1-9,2.779-1.9,4.615-3.153,4.615-7.07a5.72,5.72,0,1,0-11.439,0,5,5,0,0,1-9.994,0,15.713,15.713,0,0,1,31.425,0C90.569,85.7,84.954,89.535,81.6,91.826Z" transform="translate(0)"/>
  </g>
</svg>
