<svg xmlns="http://www.w3.org/2000/svg" xmlns:xlink="http://www.w3.org/1999/xlink" viewBox="235.889 -1069.541 179.563 179.563">
  <defs>
    <style>
      .cls-1 {
        fill: #fff;
      }

      .cls-2 {
        fill: #313233;
        font-size: 11px;
        font-family: GothamPro-Bold, Gotham Pro;
        font-weight: 700;
      }

      .cls-3 {
        fill: url(#linear-gradient);
      }

      .cls-4 {
        filter: url(#Path_110);
      }
    </style>
    <filter id="Path_110" x="235.889" y="-1069.541" width="179.563" height="179.563" filterUnits="userSpaceOnUse">
      <feOffset dy="4" input="SourceAlpha"/>
      <feGaussianBlur stdDeviation="4" result="blur"/>
      <feFlood flood-color="#0f5699" flood-opacity="0.102"/>
      <feComposite operator="in" in2="blur"/>
      <feComposite in="SourceGraphic"/>
    </filter>
    <linearGradient id="linear-gradient" x1="0.5" x2="0.5" y2="1" gradientUnits="objectBoundingBox">
      <stop offset="0" stop-color="#00b782"/>
      <stop offset="1" stop-color="#00afb7"/>
    </linearGradient>
  </defs>
  <g id="_1" data-name="1" transform="translate(-594 -1978)">
    <g class="cls-4" transform="matrix(1, 0, 0, 1, 594, 1978)">
      <path id="Path_110-2" data-name="Path 110" class="cls-1" d="M0,0H110V110H0Z" transform="translate(247.89 -983.76) rotate(-45)"/>
    </g>
    <text id="SAFETY" class="cls-2" transform="translate(920 1015)"><tspan x="-22.577" y="0">SAFETY</tspan></text>
    <g id="Group_141" data-name="Group 141" transform="translate(904 953)">
      <g id="Group_138" data-name="Group 138">
        <g id="Group_137" data-name="Group 137">
          <path id="Path_120" data-name="Path 120" class="cls-3" d="M5.9,5.9V15c0,4.9,1.1,8.8,3.2,11.9a22.95,22.95,0,0,0,7.2,6.4,22.95,22.95,0,0,0,7.2-6.4c2.2-3.1,3.2-7,3.2-11.9V5.9ZM18.6,18.3v6.6H13.8V18.3a4.311,4.311,0,1,1,6.7-3.6A4.018,4.018,0,0,1,18.6,18.3Z"/>
        </g>
      </g>
      <g id="Group_140" data-name="Group 140">
        <g id="Group_139" data-name="Group 139">
          <path id="Path_121" data-name="Path 121" class="cls-3" d="M0,0V15c0,6.1,1.4,11,4.3,15.2,2.5,3.6,6.1,6.6,11.4,9.5l.6.3.6-.3c5.3-2.9,8.9-5.9,11.4-9.5,2.9-4.1,4.3-9.1,4.3-15.2V0ZM29,15c0,5.4-1.2,9.7-3.6,13.2a25.213,25.213,0,0,1-8.5,7.4l-.6.4-.6-.4a26.343,26.343,0,0,1-8.5-7.4C4.7,24.7,3.5,20.3,3.5,15V3.5H29V15Z"/>
        </g>
      </g>
    </g>
  </g>
</svg>
