<svg xmlns="http://www.w3.org/2000/svg" viewBox="3254 439 57.868 50">
  <defs>
    <style>
      .cls-1 {
        fill: #228cef;
      }
    </style>
  </defs>
  <g id="smart-tv" transform="translate(3254 399.475)">
    <g id="Layer_1_14_" transform="translate(0 39.525)">
      <g id="Group_1941" data-name="Group 1941" transform="translate(0 0)">
        <path id="Path_5023" data-name="Path 5023" class="cls-1" d="M38.325,201.451H5.584A5.525,5.525,0,0,0,0,206.908V224.04a5.633,5.633,0,0,0,5.584,5.584H8.122v.254a4.171,4.171,0,0,0,.508,2.157,5.625,5.625,0,0,0,5.076,3.3H30.2a5.309,5.309,0,0,0,4.949-3.3,5.98,5.98,0,0,0,.508-2.157v-.254h2.665a5.525,5.525,0,0,0,5.584-5.457V207.035A5.809,5.809,0,0,0,38.325,201.451Zm-12.69,30.33a1.2,1.2,0,0,1-1.269,1.269H19.289a1.39,1.39,0,0,1-1.4-1.269v-2.157a1.408,1.408,0,0,1,1.4-1.4h5.076a1.3,1.3,0,0,1,1.269,1.4Zm14.594-8.756a2.872,2.872,0,0,1-2.919,2.919H6.472a2.872,2.872,0,0,1-2.919-2.919V208.05A2.98,2.98,0,0,1,6.472,205H37.31a2.98,2.98,0,0,1,2.919,3.046v14.975Z" transform="translate(0 -185.334)"/>
        <path id="Path_5024" data-name="Path 5024" class="cls-1" d="M274.816,39.525a16.188,16.188,0,0,0-15.99,14.34h3.807a12.309,12.309,0,1,1,15.99,13.452v3.934a16.088,16.088,0,0,0-3.807-31.726Z" transform="translate(-233.064 -39.525)"/>
        <path id="Path_5025" data-name="Path 5025" class="cls-1" d="M339.344,122.848a6.179,6.179,0,0,1,.127,1.523v2.919A9.268,9.268,0,1,0,326.4,117.137h3.934a5.5,5.5,0,0,1,5.2-3.68,5.416,5.416,0,0,1,5.457,5.457A4.694,4.694,0,0,1,339.344,122.848Z" transform="translate(-293.913 -102.67)"/>
      </g>
    </g>
  </g>
</svg>
