<svg xmlns="http://www.w3.org/2000/svg" viewBox="896 -30 140 138.717">
  <defs>
    <style>
      .cls-1 {
        fill: #f7f7f7;
      }
    </style>
  </defs>
  <g id="presentation" transform="translate(896 -31.47)">
    <path id="Path_4984" data-name="Path 4984" class="cls-1" d="M140,18.3A16.832,16.832,0,0,0,123.17,1.47H16.827A16.83,16.83,0,0,0,0,18.3V90.046a16.455,16.455,0,0,0,.415,3.517H.373c.031.137.087.258.12.4.025.1.034.208.059.306H.586a16.8,16.8,0,0,0,16.241,12.609H50.642L24.509,133.006a4.206,4.206,0,0,0,5.948,5.948l30.987-30.982a4.176,4.176,0,0,0,.729-1.1h3.621v29.108a4.207,4.207,0,1,0,8.413,0V106.871h3.621a4.168,4.168,0,0,0,.729,1.1l30.987,30.982a4.206,4.206,0,0,0,5.948-5.948L89.361,106.874h33.814a16.8,16.8,0,0,0,16.236-12.609h.034c.028-.1.039-.208.059-.306.034-.137.093-.258.12-.4h-.042A16.263,16.263,0,0,0,140,90.046V18.3ZM5.609,18.3A11.229,11.229,0,0,1,16.827,7.079H123.17A11.229,11.229,0,0,1,134.389,18.3V88.653H5.609ZM118.232,24.84l5.2,6.6L69.314,74.077l-20.4-20.409L21.676,73.934l-5.023-6.748,33.066-24.6,20.263,20.26Z"/>
  </g>
</svg>
