<svg xmlns="http://www.w3.org/2000/svg" xmlns:xlink="http://www.w3.org/1999/xlink" viewBox="867.889 1257.459 179.564 179.563">
  <defs>
    <style>
      .cls-1 {
        fill: #fff;
      }

      .cls-2 {
        fill: #228cef;
      }

      .cls-3 {
        filter: url(#Path_110);
      }
    </style>
    <filter id="Path_110" x="867.889" y="1257.459" width="179.564" height="179.563" filterUnits="userSpaceOnUse">
      <feOffset dy="4" input="SourceAlpha"/>
      <feGaussianBlur stdDeviation="4" result="blur"/>
      <feFlood flood-color="#0f5699" flood-opacity="0.102"/>
      <feComposite operator="in" in2="blur"/>
      <feComposite in="SourceGraphic"/>
    </filter>
  </defs>
  <g id="Group_1943" data-name="Group 1943" transform="translate(38 349)">
    <g class="cls-3" transform="matrix(1, 0, 0, 1, -38, -349)">
      <path id="Path_110-2" data-name="Path 110" class="cls-1" d="M0,0H110V110H0Z" transform="translate(879.89 1343.24) rotate(-45)"/>
    </g>
    <g id="Group_1939" data-name="Group 1939" transform="translate(895 969)">
      <g id="Group_1938" data-name="Group 1938">
        <g id="Group_1937" data-name="Group 1937">
          <path id="Path_5008" data-name="Path 5008" class="cls-2" d="M48.7,41.9H46.3A1.324,1.324,0,0,0,45,43.2V45H43.2a1.324,1.324,0,0,0-1.3,1.3v2.4A1.324,1.324,0,0,0,43.2,50h5.5A1.324,1.324,0,0,0,50,48.7V43.2A1.324,1.324,0,0,0,48.7,41.9Z"/>
          <path id="Path_5009" data-name="Path 5009" class="cls-2" d="M21.5,45H13.9a1.324,1.324,0,0,0-1.3,1.3v2.4A1.324,1.324,0,0,0,13.9,50h7.6a1.324,1.324,0,0,0,1.3-1.3V46.3A1.4,1.4,0,0,0,21.5,45Z"/>
          <path id="Path_5010" data-name="Path 5010" class="cls-2" d="M36.1,45H28.5a1.324,1.324,0,0,0-1.3,1.3v2.4A1.324,1.324,0,0,0,28.5,50h7.6a1.324,1.324,0,0,0,1.3-1.3V46.3A1.324,1.324,0,0,0,36.1,45Z"/>
          <path id="Path_5011" data-name="Path 5011" class="cls-2" d="M6.8,45H5V43.2a1.324,1.324,0,0,0-1.3-1.3H1.3A1.324,1.324,0,0,0,0,43.2v5.5A1.324,1.324,0,0,0,1.3,50H6.8a1.324,1.324,0,0,0,1.3-1.3V46.3A1.324,1.324,0,0,0,6.8,45Z"/>
          <path id="Path_5012" data-name="Path 5012" class="cls-2" d="M1.3,37.4H3.7A1.324,1.324,0,0,0,5,36.1V28.5a1.324,1.324,0,0,0-1.3-1.3H1.3A1.324,1.324,0,0,0,0,28.5v7.6A1.324,1.324,0,0,0,1.3,37.4Z"/>
          <path id="Path_5013" data-name="Path 5013" class="cls-2" d="M1.3,22.7H3.7A1.324,1.324,0,0,0,5,21.4V13.8a1.324,1.324,0,0,0-1.3-1.3H1.3A1.324,1.324,0,0,0,0,13.8v7.6A1.261,1.261,0,0,0,1.3,22.7Z"/>
          <path id="Path_5014" data-name="Path 5014" class="cls-2" d="M6.8,0H1.3A1.324,1.324,0,0,0,0,1.3V6.8A1.324,1.324,0,0,0,1.3,8.1H3.7A1.324,1.324,0,0,0,5,6.8V5H6.8A1.324,1.324,0,0,0,8.1,3.7V1.3A1.324,1.324,0,0,0,6.8,0Z"/>
          <path id="Path_5015" data-name="Path 5015" class="cls-2" d="M36.1,0H28.5a1.324,1.324,0,0,0-1.3,1.3V3.7A1.324,1.324,0,0,0,28.5,5h7.6a1.324,1.324,0,0,0,1.3-1.3V1.3A1.324,1.324,0,0,0,36.1,0Z"/>
          <path id="Path_5016" data-name="Path 5016" class="cls-2" d="M13.9,5h7.6a1.324,1.324,0,0,0,1.3-1.3V1.3A1.324,1.324,0,0,0,21.5,0H13.9a1.324,1.324,0,0,0-1.3,1.3V3.7A1.324,1.324,0,0,0,13.9,5Z"/>
          <path id="Path_5017" data-name="Path 5017" class="cls-2" d="M48.7,0H43.2a1.324,1.324,0,0,0-1.3,1.3V3.7A1.324,1.324,0,0,0,43.2,5H45V6.8a1.324,1.324,0,0,0,1.3,1.3h2.4A1.324,1.324,0,0,0,50,6.8V1.3A1.324,1.324,0,0,0,48.7,0Z"/>
          <path id="Path_5018" data-name="Path 5018" class="cls-2" d="M48.7,27.3H46.3A1.324,1.324,0,0,0,45,28.6v7.6a1.324,1.324,0,0,0,1.3,1.3h2.4A1.324,1.324,0,0,0,50,36.2V28.6A1.26,1.26,0,0,0,48.7,27.3Z"/>
          <path id="Path_5019" data-name="Path 5019" class="cls-2" d="M48.7,12.6H46.3A1.324,1.324,0,0,0,45,13.9v7.6a1.324,1.324,0,0,0,1.3,1.3h2.4A1.324,1.324,0,0,0,50,21.5V13.9A1.324,1.324,0,0,0,48.7,12.6Z"/>
        </g>
      </g>
    </g>
  </g>
</svg>
