<svg xmlns="http://www.w3.org/2000/svg" xmlns:xlink="http://www.w3.org/1999/xlink" viewBox="261.889 1509.459 179.563 179.563">
  <defs>
    <style>
      .cls-1 {
        fill: #fff;
      }

      .cls-2 {
        fill: #228cef;
      }

      .cls-3 {
        filter: url(#Path_110);
      }
    </style>
    <filter id="Path_110" x="261.889" y="1509.459" width="179.563" height="179.563" filterUnits="userSpaceOnUse">
      <feOffset dy="4" input="SourceAlpha"/>
      <feGaussianBlur stdDeviation="4" result="blur"/>
      <feFlood flood-color="#0f5699" flood-opacity="0.102"/>
      <feComposite operator="in" in2="blur"/>
      <feComposite in="SourceGraphic"/>
    </filter>
  </defs>
  <g id="Group_1944" data-name="Group 1944" transform="translate(-568 601)">
    <g class="cls-3" transform="matrix(1, 0, 0, 1, 568, -601)">
      <path id="Path_110-2" data-name="Path 110" class="cls-1" d="M0,0H110V110H0Z" transform="translate(273.89 1595.24) rotate(-45)"/>
    </g>
    <g id="Group_1940" data-name="Group 1940" transform="translate(902 969)">
      <g id="c181_note_1_">
        <path id="Path_5021" data-name="Path 5021" class="cls-2" d="M32.2,3.2h-8V6.4h6.4A1.58,1.58,0,0,1,32.2,8V45.2a1.58,1.58,0,0,1-1.6,1.6H4.8a1.58,1.58,0,0,1-1.6-1.6V8A1.58,1.58,0,0,1,4.8,6.4h6.5V3.2H3.2A3.159,3.159,0,0,0,0,6.4V46.8A3.159,3.159,0,0,0,3.2,50h29a3.244,3.244,0,0,0,3.3-3.2V6.4A3.183,3.183,0,0,0,32.2,3.2Z"/>
        <path id="Path_5022" data-name="Path 5022" class="cls-2" d="M10.2,8.2c-.6,0-1.2.4-1.2.9v1.7H26.6V9.1c0-.5-.6-.9-1.3-.9H21.6v-7c-3.8-2.7-7.6,0-7.6,0v7H10.2Z"/>
        <rect id="Rectangle_66" data-name="Rectangle 66" class="cls-2" width="21.1" height="4.1" transform="translate(7.2 18.6)"/>
        <rect id="Rectangle_67" data-name="Rectangle 67" class="cls-2" width="21.1" height="4.1" transform="translate(7.2 27.8)"/>
        <rect id="Rectangle_68" data-name="Rectangle 68" class="cls-2" width="21.1" height="4.1" transform="translate(7.2 37.5)"/>
      </g>
    </g>
  </g>
</svg>
