<svg xmlns="http://www.w3.org/2000/svg" xmlns:xlink="http://www.w3.org/1999/xlink" viewBox="867.889 753.459 179.564 179.563">
  <defs>
    <style>
      .cls-1 {
        fill: #fff;
      }

      .cls-2 {
        fill: #228cef;
      }

      .cls-3 {
        filter: url(#Path_110);
      }
    </style>
    <filter id="Path_110" x="867.889" y="753.459" width="179.564" height="179.563" filterUnits="userSpaceOnUse">
      <feOffset dy="4" input="SourceAlpha"/>
      <feGaussianBlur stdDeviation="4" result="blur"/>
      <feFlood flood-color="#0f5699" flood-opacity="0.102"/>
      <feComposite operator="in" in2="blur"/>
      <feComposite in="SourceGraphic"/>
    </filter>
  </defs>
  <g id="_2" data-name="2" transform="translate(38 -155)">
    <g class="cls-3" transform="matrix(1, 0, 0, 1, -38, 155)">
      <path id="Path_110-2" data-name="Path 110" class="cls-1" d="M0,0H110V110H0Z" transform="translate(879.89 839.24) rotate(-45)"/>
    </g>
    <g id="statistics" transform="translate(884.288 965)">
      <path id="Path_4995" data-name="Path 4995" class="cls-2" d="M109.256,123.319h1.038v12.7a1.621,1.621,0,0,0,1.621,1.621h4.707a1.621,1.621,0,0,0,1.621-1.621v-12.7h1.038a1.621,1.621,0,0,0,1.146-2.767l-5.012-5.012a1.621,1.621,0,0,0-2.293,0l-5.012,5.012a1.621,1.621,0,0,0,1.146,2.767Z" transform="translate(-78.725 -95.429)"/>
      <path id="Path_4996" data-name="Path 4996" class="cls-2" d="M14.333,62.665h1.038V85.718a1.621,1.621,0,0,0,1.621,1.621H21.7a1.621,1.621,0,0,0,1.621-1.621V62.665h1.038A1.621,1.621,0,0,0,25.5,59.9l-5.012-5.012a1.621,1.621,0,0,0-2.293,0L13.187,59.9a1.621,1.621,0,0,0,1.146,2.767Z" transform="translate(0 -45.125)"/>
      <path id="Path_4997" data-name="Path 4997" class="cls-2" d="M204.177,8.255h1.038V40.592a1.621,1.621,0,0,0,1.621,1.621h4.707a1.621,1.621,0,0,0,1.621-1.621V8.255H214.2a1.621,1.621,0,0,0,1.146-2.767L210.336.475a1.621,1.621,0,0,0-2.293,0l-5.012,5.012a1.621,1.621,0,0,0,1.146,2.767Z" transform="translate(-157.449)"/>
      <path id="Path_4998" data-name="Path 4998" class="cls-2" d="M56.2,263.015H15.854a2.56,2.56,0,1,0,0,5.119H56.2a2.56,2.56,0,1,0,0-5.119Z" transform="translate(-0.482 -218.134)"/>
    </g>
  </g>
</svg>
