<svg xmlns="http://www.w3.org/2000/svg" xmlns:xlink="http://www.w3.org/1999/xlink" viewBox="261.889 1257.459 179.563 179.563">
  <defs>
    <style>
      .cls-1 {
        fill: #fff;
      }

      .cls-2 {
        fill: #228cef;
      }

      .cls-3 {
        filter: url(#Path_110);
      }
    </style>
    <filter id="Path_110" x="261.889" y="1257.459" width="179.563" height="179.563" filterUnits="userSpaceOnUse">
      <feOffset dy="4" input="SourceAlpha"/>
      <feGaussianBlur stdDeviation="4" result="blur"/>
      <feFlood flood-color="#0f5699" flood-opacity="0.102"/>
      <feComposite operator="in" in2="blur"/>
      <feComposite in="SourceGraphic"/>
    </filter>
  </defs>
  <g id="Group_1942" data-name="Group 1942" transform="translate(-568 349)">
    <g class="cls-3" transform="matrix(1, 0, 0, 1, 568, -349)">
      <path id="Path_110-2" data-name="Path 110" class="cls-1" d="M0,0H110V110H0Z" transform="translate(273.89 1343.24) rotate(-45)"/>
    </g>
    <g id="Group_1936" data-name="Group 1936" transform="translate(895 969)">
      <path id="Path_5005" data-name="Path 5005" class="cls-2" d="M20.6,10h-.7a1.347,1.347,0,0,0-1.4,1.3V17H22V11.3A1.347,1.347,0,0,0,20.6,10Zm0,0"/>
      <path id="Path_5006" data-name="Path 5006" class="cls-2" d="M30.1,10h-.7A1.347,1.347,0,0,0,28,11.3V17h3.6V11.3A1.514,1.514,0,0,0,30.1,10Zm0,0"/>
      <path id="Path_5007" data-name="Path 5007" class="cls-2" d="M25,0C11.2,0,0,11.5,0,25.6A25.663,25.663,0,0,0,17.2,49.9a2.2,2.2,0,0,0,.8.1,2.463,2.463,0,0,0,2.3-1.7,2.5,2.5,0,0,0-1.5-3.1,19.944,19.944,0,0,1-8-5.1A20.822,20.822,0,0,1,4.9,25.5,20.34,20.34,0,0,1,25,4.9,20.489,20.489,0,0,1,45.2,25.5a20.822,20.822,0,0,1-5.9,14.6c-1.5,1.3-5.1,4-7.3,4A3.315,3.315,0,0,1,29.4,43c-1.7-2-2.1-5.9-2.1-8.7a7.955,7.955,0,0,0,7.5-8.1V18.5H15.2v7.7a8.138,8.138,0,0,0,7.3,8.1c0,3.3.4,8.7,3.3,12A8.048,8.048,0,0,0,32,49.1c4.7,0,10-4.8,10.5-5.4l.1-.1A25.913,25.913,0,0,0,50,25.5C50,11.5,38.8,0,25,0Zm0,0"/>
    </g>
  </g>
</svg>
