<svg xmlns="http://www.w3.org/2000/svg" xmlns:xlink="http://www.w3.org/1999/xlink" viewBox="867.889 501.459 179.564 179.563">
  <defs>
    <style>
      .cls-1 {
        fill: #fff;
      }

      .cls-2 {
        fill: #228cef;
      }

      .cls-3 {
        filter: url(#Path_110);
      }
    </style>
    <filter id="Path_110" x="867.889" y="501.459" width="179.564" height="179.563" filterUnits="userSpaceOnUse">
      <feOffset dy="4" input="SourceAlpha"/>
      <feGaussianBlur stdDeviation="4" result="blur"/>
      <feFlood flood-color="#0f5699" flood-opacity="0.102"/>
      <feComposite operator="in" in2="blur"/>
      <feComposite in="SourceGraphic"/>
    </filter>
  </defs>
  <g id="_2" data-name="2" transform="translate(38 -407)">
    <g class="cls-3" transform="matrix(1, 0, 0, 1, -38, 407)">
      <path id="Path_110-2" data-name="Path 110" class="cls-1" d="M0,0H110V110H0Z" transform="translate(879.89 587.24) rotate(-45)"/>
    </g>
    <g id="danger-sing" transform="translate(892.001 933.19)">
      <path id="Path_4990" data-name="Path 4990" class="cls-2" d="M46.045,77.81H8.952A8.939,8.939,0,0,1,1.211,64.4L19.758,32.279a8.939,8.939,0,0,1,15.482,0L53.786,64.4A8.939,8.939,0,0,1,46.045,77.81ZM27.5,30.379a6.305,6.305,0,0,0-5.516,3.185L3.436,65.686a6.37,6.37,0,0,0,5.516,9.555H46.045a6.37,6.37,0,0,0,5.516-9.555L33.015,33.564A6.3,6.3,0,0,0,27.5,30.379ZM49.92,65.832,32.037,34.858a5.24,5.24,0,0,0-9.076,0L5.078,65.832a5.24,5.24,0,0,0,4.538,7.86H45.381a5.24,5.24,0,0,0,4.538-7.86ZM24.26,44.523a3.238,3.238,0,0,1,6.477,0v10.51a3.238,3.238,0,1,1-6.477,0Zm3.238,23.3a3.319,3.319,0,1,1,3.319-3.319A3.322,3.322,0,0,1,27.5,67.824Z"/>
    </g>
  </g>
</svg>
