<svg xmlns="http://www.w3.org/2000/svg" xmlns:xlink="http://www.w3.org/1999/xlink" viewBox="1719.889 -1155.541 179.563 179.563">
  <defs>
    <style>
      .cls-1 {
        fill: #228cef;
      }

      .cls-2, .cls-3 {
        fill: #fff;
      }

      .cls-2 {
        font-size: 11px;
        font-family: OpenSans-Bold, Open Sans;
        font-weight: 700;
      }

      .cls-4 {
        filter: url(#Path_110);
      }
    </style>
    <filter id="Path_110" x="1719.889" y="-1155.541" width="179.563" height="179.563" filterUnits="userSpaceOnUse">
      <feOffset dy="4" input="SourceAlpha"/>
      <feGaussianBlur stdDeviation="4" result="blur"/>
      <feFlood flood-color="#0f5699" flood-opacity="0.102"/>
      <feComposite operator="in" in2="blur"/>
      <feComposite in="SourceGraphic"/>
    </filter>
  </defs>
  <g id="_4" data-name="4" transform="translate(890 -2064)">
    <g class="cls-4" transform="matrix(1, 0, 0, 1, -890, 2064)">
      <path id="Path_110-2" data-name="Path 110" class="cls-1" d="M0,0H110V110H0Z" transform="translate(1731.89 -1069.76) rotate(-45)"/>
    </g>
    <text id="TRAINING" class="cls-2" transform="translate(920 1015)"><tspan x="-27.178" y="0">TRAINING</tspan></text>
    <g id="icon" transform="translate(900.025 966)">
      <path id="Path_124" data-name="Path 124" class="cls-3" d="M31.8,15.1V8.5L21.3,10.6a5.283,5.283,0,0,1-1.3.1,6.151,6.151,0,0,1-1.3-.1L8.3,8.5V15c0,1.7,5.3,3.1,11.8,3.1S31.8,16.8,31.8,15.1Z"/>
      <path id="Path_125" data-name="Path 125" class="cls-3" d="M39.2,3.8,21,.1A3.4,3.4,0,0,0,20,0a3.4,3.4,0,0,0-1,.1L.8,3.8a1.019,1.019,0,0,0,0,2L8.2,7.3,19,9.4a3.4,3.4,0,0,0,1,.1,3.4,3.4,0,0,0,1-.1L31.7,7.2,35,6.5v7.8a1.816,1.816,0,0,0-.6,1.4,1.9,1.9,0,0,0,3.8,0,1.678,1.678,0,0,0-.6-1.4V6.1l1.6-.3A1.019,1.019,0,0,0,39.2,3.8Z"/>
    </g>
    <g id="arrow" transform="translate(58 -40)">
      <path id="Union_4" data-name="Union 4" class="cls-3" d="M-689.457,2173.486a1,1,0,0,1,0-1.415l1.225-1.225H-696a1,1,0,0,1-1-1,1,1,0,0,1,1-1h8.268l-1.725-1.725a1,1,0,0,1,0-1.414,1,1,0,0,1,1.414,0l2.829,2.829a1,1,0,0,1,.229,1.061,1,1,0,0,1-.229,1.061l-2.829,2.829a1,1,0,0,1-.707.293A1,1,0,0,1-689.457,2173.486Z" transform="translate(1553 -1091.846)"/>
    </g>
  </g>
</svg>
