<svg xmlns="http://www.w3.org/2000/svg" viewBox="532 -1733.564 18 15.072">
  <defs>
    <style>
      .cls-1 {
        fill: #bdc3d1;
      }
    </style>
  </defs>
  <path id="Twitter_1_" class="cls-1" d="M17.576.288a6.676,6.676,0,0,1-2.352.912A3.7,3.7,0,0,0,12.536,0a3.75,3.75,0,0,0-3.7,3.792,5.289,5.289,0,0,0,.1.864A10.393,10.393,0,0,1,1.352.72a3.684,3.684,0,0,0-.48,1.92A4,4,0,0,0,2.5,5.808a3.412,3.412,0,0,1-1.68-.48v.048A3.72,3.72,0,0,0,3.8,9.072a3.1,3.1,0,0,1-.96.144,2.952,2.952,0,0,1-.672-.048,3.765,3.765,0,0,0,3.456,2.64,7.245,7.245,0,0,1-4.56,1.632A5.217,5.217,0,0,1,.2,13.392a10.338,10.338,0,0,0,5.664,1.68c6.768,0,10.512-5.76,10.512-10.752V3.84A7.14,7.14,0,0,0,18.2,1.872a6.588,6.588,0,0,1-2.112.576A4.992,4.992,0,0,0,17.576.288Z" transform="translate(531.8 -1733.564)"/>
</svg>
