<svg xmlns="http://www.w3.org/2000/svg" viewBox="-667 -1767 103.068 120">
  <defs>
    <style>
      .cls-1 {
        fill: #f7f7f7;
      }
    </style>
  </defs>
  <g id="specialist-user" transform="translate(-691.669 -1767)">
    <path id="Path_1857" data-name="Path 1857" class="cls-1" d="M121.732,67.677c8.279,0,27.745-9.964,27.745-33.839C149.477,15.15,146.955,0,121.732,0S93.987,15.15,93.987,33.839C93.987,57.713,113.453,67.677,121.732,67.677Zm-23.6-39.486c1.949-3.769,6.165-8.125,15.231-7.932,0,0,5.4,13.108,31.933,7.221.107,2.094.141,4.23.141,6.358,0,11.67-5.153,18.9-9.476,22.912-5.447,5.054-11.495,6.888-14.23,6.888S112.949,61.8,107.5,56.75c-4.323-4.011-9.476-11.242-9.476-22.912C98.026,31.951,98.053,30.056,98.134,28.191Z" transform="translate(-45.529)"/>
    <path id="Path_1858" data-name="Path 1858" class="cls-1" d="M127.712,225.891c-1.416-8.808-4.333-20.153-10.182-24.185-3.994-2.754-17.929-10.2-23.879-13.378l-.1-.055a1.945,1.945,0,0,0-2.117.186,25.28,25.28,0,0,1-10.149,4.9,1.945,1.945,0,0,0-1.4,1.208L76.2,204.279l-3.683-9.709a1.945,1.945,0,0,0-1.4-1.208,25.28,25.28,0,0,1-10.149-4.9,1.944,1.944,0,0,0-2.117-.186c-5.88,3.142-19.985,10.739-23.965,13.421-6.733,4.536-9.677,20.952-10.2,24.2a1.947,1.947,0,0,0,.087.958c.241.68,6.42,16.661,51.422,16.661s51.181-15.981,51.422-16.661A1.944,1.944,0,0,0,127.712,225.891Zm-20.737-5.375-8.808,2.745-8.808-2.745v-4.739h17.617Z" transform="translate(0 -123.51)"/>
  </g>
</svg>
