<svg xmlns="http://www.w3.org/2000/svg" viewBox="293.87 1497 142.463 122.063">
  <defs>
    <style>
      .cls-1 {
        opacity: 0.5;
      }

      .cls-2 {
        fill: #f5f5f5;
      }
    </style>
  </defs>
  <g id="icon" class="cls-1" transform="translate(293.87 1495.839)">
    <g id="Group_153" data-name="Group 153" transform="translate(0 1.161)">
      <path id="Path_140" data-name="Path 140" class="cls-2" d="M22.993,43.162h47.7c0-17.378-10.118-30.37-26.1-34.818l-5.74,21.413L40.257,2.692a18.91,18.91,0,0,0-14.891,0l1.406,27.065L21.042,8.344A37.308,37.308,0,0,0,8.261,14.638,42.622,42.622,0,0,1,22.993,43.162Z" transform="translate(64.355 -1.161)"/>
      <path id="Path_141" data-name="Path 141" class="cls-2" d="M74.664,6.293H18.837V8.781l8.456.141-.009,13.37H17.809c-.211,2.505-.589,9.88-.984,11.814,1.248,4.008,1.081,9.01-.51,14.943a20.953,20.953,0,0,1-3.033,7.709A46.155,46.155,0,0,1,8.7,68.449c5.678,5.74,12.851,9.423,19.963,9.423,14.785,0,29.5-13.713,32.55-30.133a11.6,11.6,0,0,0,2.663-5.986c1.108-4.026,1.96-9.326-.1-12.271a50.707,50.707,0,0,0,1.547-9.924,2.743,2.743,0,0,0,.044-2.013c0-.369,0-.712-.009-.967l.026-.413a3.01,3.01,0,0,0-.035-.624l-.378-2.083h9.7V6.293Z" transform="translate(67.791 38.82)"/>
      <path id="Path_142" data-name="Path 142" class="cls-2" d="M50.387,8.961l-5.74,21.413L46.054,3.3a18.947,18.947,0,0,0-14.891,0l1.406,27.074L26.829,8.961C10.858,13.4.74,26.392.74,43.77H76.477C76.477,26.4,66.359,13.409,50.387,8.961Z" transform="translate(5.765 3.603)"/>
      <path id="Path_143" data-name="Path 143" class="cls-2" d="M78.769,30.086a50.325,50.325,0,0,0,1.538-9.924,2.7,2.7,0,0,0,.053-2.013c0-.378,0-.7-.009-.967l.026-.422a2.17,2.17,0,0,0-.053-.624l-.36-2.075h9.7V6.906H0v7.155H9.827L9.8,16.452V17.8c-.6,1.837-.431,3.006,1.187,11.559a5.369,5.369,0,0,0-.5.589c-2.329,3.094-1.178,8.931-.237,12.245a12.1,12.1,0,0,0,2.655,6.1c2.681,16.174,16.86,30.177,30.766,30.177,14.785,0,29.5-13.713,32.55-30.124a11.812,11.812,0,0,0,2.663-5.995C79.965,38.331,80.817,33.039,78.769,30.086Z" transform="translate(0 43.596)"/>
    </g>
  </g>
</svg>
