<svg xmlns="http://www.w3.org/2000/svg" viewBox="907 2438 121.11 120">
  <defs>
    <style>
      .cls-1 {
        fill: #f7f7f7;
      }
    </style>
  </defs>
  <g id="presentation" transform="translate(907 2436.53)">
    <path id="Path_143" data-name="Path 143" class="cls-1" d="M121.108,16.027A14.56,14.56,0,0,0,106.551,1.47H14.557A14.559,14.559,0,0,0,0,16.027V78.095a14.235,14.235,0,0,0,.359,3.042H.323c.027.119.075.223.1.342.022.085.029.18.051.265H.507a14.534,14.534,0,0,0,14.05,10.908H43.809L21.2,115.258a3.639,3.639,0,0,0,5.146,5.146L53.154,93.6a3.613,3.613,0,0,0,.631-.954h3.132V117.83a3.639,3.639,0,1,0,7.278,0V92.649h3.132a3.606,3.606,0,0,0,.631.954l26.806,26.8a3.639,3.639,0,0,0,5.146-5.146L77.3,92.651h29.252A14.529,14.529,0,0,0,120.6,81.744h.029c.024-.085.034-.18.051-.265.029-.119.08-.223.1-.342h-.036a14.07,14.07,0,0,0,.362-3.042V16.027Zm-116.255,0a9.714,9.714,0,0,1,9.7-9.7h91.994a9.714,9.714,0,0,1,9.7,9.7V76.889H4.852Zm97.426,5.66,4.5,5.713L59.962,64.28,42.312,46.625,18.752,64.156l-4.345-5.837,28.6-21.285L60.539,54.561Z"/>
  </g>
</svg>
